<svg width="512" height="314" viewBox="0 0 512 314" fill="none" xmlns="http://www.w3.org/2000/svg">
<path d="M253.11 313.094C251.377 313.094 249.759 312.632 248.256 311.823L232.885 302.693C230.573 301.421 231.729 300.959 232.422 300.728C235.543 299.688 236.121 299.456 239.357 297.607C239.704 297.376 240.166 297.492 240.513 297.723L252.301 304.773C252.764 305.004 253.342 305.004 253.688 304.773L299.803 278.075C300.265 277.844 300.496 277.381 300.496 276.804V223.523C300.496 222.945 300.265 222.483 299.803 222.252L253.688 195.67C253.226 195.438 252.648 195.438 252.301 195.67L206.187 222.252C205.724 222.483 205.493 223.061 205.493 223.523V276.804C205.493 277.266 205.724 277.844 206.187 278.075L218.784 285.356C225.603 288.823 229.88 284.778 229.88 280.733V228.146C229.88 227.453 230.458 226.759 231.267 226.759H237.161C237.854 226.759 238.548 227.337 238.548 228.146V280.733C238.548 289.864 233.578 295.18 224.91 295.18C222.252 295.18 220.171 295.18 214.277 292.291L202.142 285.356C199.137 283.623 197.287 280.386 197.287 276.919V223.639C197.287 220.172 199.137 216.935 202.142 215.202L248.256 188.504C251.146 186.886 255.075 186.886 257.965 188.504L304.079 215.202C307.084 216.935 308.933 220.172 308.933 223.639V276.919C308.933 280.386 307.084 283.623 304.079 285.356L257.965 312.054C256.462 312.748 254.728 313.094 253.11 313.094ZM267.326 276.457C247.1 276.457 242.94 267.211 242.94 259.352C242.94 258.658 243.518 257.965 244.327 257.965H250.337C251.03 257.965 251.608 258.427 251.608 259.121C252.532 265.246 255.191 268.251 267.442 268.251C277.15 268.251 281.311 266.055 281.311 260.854C281.311 257.849 280.155 255.653 265.015 254.151C252.417 252.879 244.558 250.106 244.558 240.051C244.558 230.689 252.417 225.141 265.593 225.141C280.386 225.141 287.667 230.227 288.592 241.322C288.592 241.669 288.477 242.015 288.245 242.362C288.014 242.593 287.667 242.824 287.321 242.824H281.311C280.733 242.824 280.155 242.362 280.04 241.784C278.653 235.428 275.07 233.347 265.593 233.347C254.96 233.347 253.688 237.046 253.688 239.819C253.688 243.171 255.191 244.211 269.522 246.06C283.738 247.91 290.441 250.568 290.441 260.507C290.326 270.678 282.004 276.457 267.326 276.457Z" fill="#539E43"/>
<path d="M110.028 104.712C110.028 102.631 108.872 100.666 107.023 99.6262L58.0188 71.4257C57.2097 70.9634 56.2851 70.7323 55.3605 70.6167H54.8982C53.9736 70.6167 53.049 70.9634 52.24 71.4257L3.23592 99.6262C1.38671 100.666 0.230957 102.631 0.230957 104.712L0.346533 180.529C0.346533 181.569 0.924411 182.609 1.84902 183.072C2.77362 183.65 3.92938 183.65 4.73841 183.072L33.8635 166.429C35.7127 165.389 36.8684 163.424 36.8684 161.344V125.862C36.8684 123.781 38.0242 121.817 39.8734 120.777L52.24 113.611C53.1646 113.033 54.2048 112.802 55.245 112.802C56.2851 112.802 57.3253 113.033 58.1343 113.611L70.5009 120.777C72.3501 121.817 73.5059 123.781 73.5059 125.862V161.344C73.5059 163.424 74.6617 165.389 76.5109 166.429L105.636 183.072C106.561 183.65 107.716 183.65 108.641 183.072C109.565 182.609 110.143 181.569 110.143 180.529L110.028 104.712Z" fill="white"/>
<path d="M345.571 0.346727C344.646 -0.115576 343.49 -0.115576 342.681 0.346727C341.757 0.924605 341.179 1.84921 341.179 2.88939V78.0135C341.179 78.707 340.832 79.4005 340.139 79.8628C339.445 80.2095 338.752 80.2095 338.058 79.8628L325.807 72.8126C323.958 71.7725 321.762 71.7725 319.913 72.8126L270.909 101.129C269.06 102.169 267.904 104.134 267.904 106.214V162.73C267.904 164.811 269.06 166.776 270.909 167.816L319.913 196.132C321.762 197.172 323.958 197.172 325.807 196.132L374.811 167.816C376.661 166.776 377.816 164.811 377.816 162.73V21.8438C377.816 19.6479 376.661 17.6831 374.811 16.6429L345.571 0.346727ZM341.063 144.123C341.063 144.701 340.832 145.163 340.37 145.394L323.611 155.102C323.149 155.334 322.571 155.334 322.109 155.102L305.351 145.394C304.888 145.163 304.657 144.585 304.657 144.123V124.706C304.657 124.128 304.888 123.666 305.351 123.435L322.109 113.726C322.571 113.495 323.149 113.495 323.611 113.726L340.37 123.435C340.832 123.666 341.063 124.244 341.063 124.706V144.123Z" fill="white"/>
<path d="M508.648 124.244C510.497 123.204 511.538 121.239 511.538 119.159V105.405C511.538 103.325 510.382 101.36 508.648 100.32L459.991 72.1192C458.142 71.0791 455.946 71.0791 454.096 72.1192L405.092 100.435C403.243 101.475 402.087 103.44 402.087 105.521V162.037C402.087 164.117 403.243 166.082 405.092 167.122L453.75 194.861C455.599 195.901 457.795 195.901 459.528 194.861L489 178.449C489.925 177.987 490.503 176.946 490.503 175.906C490.503 174.866 489.925 173.826 489 173.363L439.765 145.047C438.84 144.47 438.263 143.545 438.263 142.505V124.822C438.263 123.782 438.84 122.741 439.765 122.279L455.137 113.495C456.061 112.917 457.217 112.917 458.142 113.495L473.513 122.279C474.438 122.857 475.016 123.782 475.016 124.822V138.691C475.016 139.731 475.593 140.771 476.518 141.233C477.443 141.811 478.598 141.811 479.523 141.233L508.648 124.244Z" fill="white"/>
<path d="M456.292 121.586C456.639 121.355 457.101 121.355 457.448 121.586L466.81 127.018C467.156 127.249 467.388 127.596 467.388 128.058V138.922C467.388 139.384 467.156 139.731 466.81 139.962L457.448 145.394C457.101 145.625 456.639 145.625 456.292 145.394L446.931 139.962C446.584 139.731 446.353 139.384 446.353 138.922V128.058C446.353 127.596 446.584 127.249 446.931 127.018L456.292 121.586Z" fill="#539E43"/>
<path d="M191.971 72.3504C190.122 71.3103 187.926 71.3103 186.077 72.3504L137.419 100.435C135.57 101.476 134.53 103.44 134.53 105.521V161.806C134.53 163.886 135.686 165.851 137.419 166.891L186.077 194.976C187.926 196.016 190.122 196.016 191.971 194.976L240.628 166.891C242.477 165.851 243.518 163.886 243.518 161.806V105.521C243.518 103.44 242.362 101.476 240.628 100.435L191.971 72.3504Z" fill="url(#paint0_linear_323_6)"/>
<mask id="mask0_323_6" style="mask-type:luminance" maskUnits="userSpaceOnUse" x="134" y="71" width="110" height="125">
<path d="M191.971 72.3504C190.122 71.3103 187.926 71.3103 186.077 72.3504L137.419 100.435C135.57 101.476 134.53 103.44 134.53 105.521V161.806C134.53 163.886 135.686 165.851 137.419 166.891L186.077 194.976C187.926 196.016 190.122 196.016 191.971 194.976L240.628 166.891C242.477 165.851 243.518 163.886 243.518 161.806V105.521C243.518 103.44 242.362 101.476 240.628 100.435L191.971 72.3504Z" fill="white"/>
</mask>
<g mask="url(#mask0_323_6)">
<path d="M240.744 100.435L191.855 72.3503C191.393 72.1192 190.815 71.888 190.353 71.7725L135.57 165.62C136.032 166.198 136.61 166.66 137.188 167.007L186.076 195.092C187.463 195.901 189.081 196.132 190.584 195.67L242.015 101.591C241.668 101.129 241.206 100.782 240.744 100.435Z" fill="url(#paint1_linear_323_6)"/>
</g>
<mask id="mask1_323_6" style="mask-type:luminance" maskUnits="userSpaceOnUse" x="134" y="71" width="110" height="125">
<path d="M191.971 72.3504C190.122 71.3103 187.926 71.3103 186.077 72.3504L137.419 100.435C135.57 101.476 134.53 103.44 134.53 105.521V161.806C134.53 163.886 135.686 165.851 137.419 166.891L186.077 194.976C187.926 196.016 190.122 196.016 191.971 194.976L240.628 166.891C242.477 165.851 243.518 163.886 243.518 161.806V105.521C243.518 103.44 242.362 101.476 240.628 100.435L191.971 72.3504Z" fill="white"/>
</mask>
<g mask="url(#mask1_323_6)">
<path fill-rule="evenodd" clip-rule="evenodd" d="M240.859 166.891C242.246 166.082 243.286 164.695 243.749 163.193L190.122 71.6569C188.735 71.4258 187.232 71.5413 185.961 72.3504L137.419 100.32L189.775 195.785C190.468 195.67 191.277 195.438 191.971 195.092L240.859 166.891Z" fill="url(#paint2_linear_323_6)"/>
<path fill-rule="evenodd" clip-rule="evenodd" d="M240.859 166.891L192.087 194.976C191.393 195.323 190.7 195.554 189.891 195.67L190.815 197.403L244.905 166.082V165.389L243.518 163.077C243.287 164.695 242.246 166.082 240.859 166.891Z" fill="url(#paint3_linear_323_6)"/>
<path fill-rule="evenodd" clip-rule="evenodd" d="M240.859 166.891L192.087 194.976C191.393 195.323 190.7 195.554 189.891 195.67L190.815 197.403L244.905 166.082V165.389L243.518 163.077C243.287 164.695 242.246 166.082 240.859 166.891Z" fill="url(#paint4_linear_323_6)"/>
</g>
<defs>
<linearGradient id="paint0_linear_323_6" x1="7566.24" y1="2243.19" x2="2232.72" y2="10623.4" gradientUnits="userSpaceOnUse">
<stop stop-color="#41873F"/>
<stop offset="0.3288" stop-color="#418B3D"/>
<stop offset="0.6352" stop-color="#419637"/>
<stop offset="0.9319" stop-color="#3FA92D"/>
<stop offset="1" stop-color="#3FAE2A"/>
</linearGradient>
<linearGradient id="paint1_linear_323_6" x1="4742.15" y1="6920.02" x2="18099.1" y2="-336.77" gradientUnits="userSpaceOnUse">
<stop offset="0.1376" stop-color="#41873F"/>
<stop offset="0.4032" stop-color="#54A044"/>
<stop offset="0.7136" stop-color="#66B848"/>
<stop offset="0.9081" stop-color="#6CC04A"/>
</linearGradient>
<linearGradient id="paint2_linear_323_6" x1="-329.24" y1="6282.87" x2="10929.8" y2="6282.87" gradientUnits="userSpaceOnUse">
<stop offset="0.0919165" stop-color="#6CC04A"/>
<stop offset="0.2864" stop-color="#66B848"/>
<stop offset="0.5968" stop-color="#54A044"/>
<stop offset="0.8624" stop-color="#41873F"/>
</linearGradient>
<linearGradient id="paint3_linear_323_6" x1="-5523.9" y1="1888.83" x2="5735.13" y2="1888.83" gradientUnits="userSpaceOnUse">
<stop offset="0.0919165" stop-color="#6CC04A"/>
<stop offset="0.2864" stop-color="#66B848"/>
<stop offset="0.5968" stop-color="#54A044"/>
<stop offset="0.8624" stop-color="#41873F"/>
</linearGradient>
<linearGradient id="paint4_linear_323_6" x1="7375.44" y1="-7082.08" x2="4523.09" y2="7864.2" gradientUnits="userSpaceOnUse">
<stop stop-color="#41873F"/>
<stop offset="0.3288" stop-color="#418B3D"/>
<stop offset="0.6352" stop-color="#419637"/>
<stop offset="0.9319" stop-color="#3FA92D"/>
<stop offset="1" stop-color="#3FAE2A"/>
</linearGradient>
</defs>
</svg>
