<svg width="433" height="446" viewBox="0 0 433 446" fill="none" xmlns="http://www.w3.org/2000/svg">
<path opacity="0.2" d="M216.334 445.876C335.813 445.876 432.669 346.063 432.669 222.938C432.669 99.8131 335.813 0 216.334 0C96.8564 0 0 99.8131 0 222.938C0 346.063 96.8564 445.876 216.334 445.876Z" fill="#9DFA71"/>
<path opacity="0.2" d="M345.517 356.681C417.196 282.814 417.196 163.053 345.517 89.187C273.839 15.3202 157.625 15.3202 85.946 89.187C14.2674 163.053 14.2674 282.814 85.946 356.681C157.625 430.547 273.839 430.547 345.517 356.681Z" fill="#71FAA8"/>
<path opacity="0.2" d="M327.673 338.292C389.496 274.581 389.496 171.286 327.673 107.576C265.85 43.865 165.614 43.865 103.791 107.576C41.9674 171.286 41.9674 274.581 103.791 338.292C165.614 402.002 265.85 402.002 327.673 338.292Z" fill="#71FAA8"/>
<path opacity="0.2" d="M313.519 323.738C367.626 267.98 367.626 177.577 313.519 121.819C259.412 66.0605 171.687 66.0605 117.58 121.819C63.4734 177.577 63.4734 267.98 117.58 323.738C171.687 379.497 259.412 379.497 313.519 323.738Z" fill="#71FAA8"/>
<path d="M276.464 415.094C266.378 413.761 263.186 405.934 269.35 397.596C275.514 389.258 288.614 383.586 298.741 384.905C308.869 386.224 312.006 394.065 305.855 402.403C299.705 410.741 286.55 416.413 276.464 415.094Z" fill="#263238"/>
<path d="M308.91 395.568L305.539 396.986C303.794 395.522 301.659 394.637 299.415 394.448C291.159 393.37 280.523 397.993 275.514 404.771C274.075 406.554 273.193 408.744 272.983 411.053L269.611 412.471L276.051 417.122C277.631 418.15 279.421 418.785 281.28 418.98C289.536 420.057 300.186 415.435 305.195 408.657C306.362 407.153 307.177 405.391 307.575 403.509L308.91 395.568Z" fill="#04E479"/>
<path opacity="0.4" d="M308.91 395.568L305.539 396.986C303.794 395.522 301.659 394.637 299.415 394.448C291.159 393.37 280.523 397.993 275.514 404.771C274.075 406.554 273.193 408.744 272.983 411.053L269.611 412.471L276.051 417.122C277.631 418.15 279.421 418.785 281.28 418.98C289.536 420.057 300.186 415.435 305.195 408.657C306.362 407.153 307.177 405.391 307.575 403.509L308.91 395.568Z" fill="black"/>
<path d="M291.07 408.531C308.064 401.248 318.535 387.149 314.455 377.04C310.376 366.931 293.292 364.64 276.297 371.923C259.302 379.206 248.832 393.305 252.911 403.414C256.991 413.523 274.075 415.814 291.07 408.531Z" fill="#71FAA8"/>
<path d="M289.456 404.531C307.083 396.977 317.942 382.354 313.711 371.869C309.48 361.384 291.761 359.008 274.134 366.561C256.508 374.115 245.649 388.738 249.88 399.223C254.111 409.708 271.83 412.085 289.456 404.531Z" fill="#47D782"/>
<path opacity="0.2" d="M289.456 404.531C307.083 396.977 317.942 382.354 313.711 371.869C309.48 361.384 291.761 359.008 274.134 366.561C256.508 374.115 245.649 388.738 249.88 399.223C254.111 409.708 271.83 412.085 289.456 404.531Z" fill="black"/>
<path d="M287.522 399.467C305.597 391.721 316.734 376.725 312.395 365.972C308.056 355.219 289.885 352.782 271.81 360.528C253.734 368.274 242.599 383.271 246.938 394.023C251.277 404.776 269.446 407.213 287.522 399.467Z" fill="#71FAA8"/>
<path d="M285.797 395.449C304.315 387.513 315.721 372.147 311.274 361.126C306.827 350.106 288.211 347.606 269.693 355.541C251.176 363.477 239.769 378.844 244.216 389.864C248.663 400.884 267.28 403.384 285.797 395.449Z" fill="#49BD79"/>
<path opacity="0.2" d="M285.797 395.449C304.315 387.513 315.721 372.147 311.274 361.126C306.827 350.106 288.211 347.606 269.693 355.541C251.176 363.477 239.769 378.844 244.216 389.864C248.663 400.884 267.28 403.384 285.797 395.449Z" fill="black"/>
<path d="M283.961 390.922C302.928 382.794 314.613 367.06 310.061 355.779C305.509 344.499 286.443 341.943 267.477 350.071C248.51 358.199 236.825 373.933 241.377 385.214C245.929 396.494 264.994 399.05 283.961 390.922Z" fill="#71FAA8"/>
<path d="M282.126 386.386C301.535 378.068 313.491 361.964 308.831 350.416C304.171 338.868 284.659 336.249 265.251 344.567C245.842 352.884 233.886 368.988 238.546 380.537C243.206 392.085 262.717 394.703 282.126 386.386Z" fill="#37474F"/>
<path d="M169.645 107.587C155.113 113.806 141.913 122.914 130.798 134.392C119.683 145.87 110.871 159.491 104.865 174.479C98.859 189.467 95.778 205.527 95.796 221.742C95.815 237.958 98.933 254.01 104.973 268.984C141.492 359.466 220.007 343.443 234.73 379.914C237.069 385.727 243.137 389.939 252.384 391.258C270.863 393.739 295.04 383.374 306.351 368.13C312.02 360.501 313.396 353.085 311.056 347.285C296.333 310.8 362.725 264.73 326.192 174.289C314.014 144.053 290.68 120.039 261.323 107.53C231.965 95.0211 198.988 95.0421 169.645 107.587Z" fill="#71FAA8"/>
<g style="mix-blend-mode:screen" opacity="0.9">
<path d="M169.645 107.587C155.113 113.806 141.913 122.914 130.798 134.392C119.683 145.87 110.871 159.491 104.865 174.479C98.859 189.467 95.778 205.527 95.796 221.742C95.815 237.958 98.933 254.01 104.973 268.984C141.492 359.466 220.007 343.443 234.73 379.914C237.069 385.727 243.137 389.939 252.384 391.258C270.863 393.739 295.04 383.374 306.351 368.13C312.02 360.501 313.396 353.085 311.056 347.285C296.333 310.8 362.725 264.73 326.192 174.289C314.014 144.053 290.68 120.039 261.323 107.53C231.965 95.0211 198.988 95.0421 169.645 107.587Z" fill="white"/>
</g>
<path d="M244.499 129.481C243.361 130.692 242.38 132.05 241.582 133.522C238.61 138.953 239.367 146.015 242.477 151.36C248.49 161.712 261.562 164.122 270.987 170.192C281.33 176.785 290.456 185.215 297.943 195.092C300.172 198.041 303.543 203.047 306.406 205.33C308.231 206.814 310.527 207.545 312.847 207.38C315.167 207.215 317.345 206.166 318.955 204.436C322.298 200.182 322.285 193.745 321.142 189.136C314.262 161.811 301.411 144.71 280.784 130.275C269.584 122.405 255.136 118.25 244.499 129.481Z" fill="#71FAA8"/>
<path opacity="0.6" d="M267.302 262.195C300.666 227.812 300.666 172.065 267.302 137.682C233.937 103.299 179.842 103.299 146.477 137.682C113.112 172.065 113.112 227.812 146.477 262.195C179.842 296.578 233.937 296.578 267.302 262.195Z" fill="#D5FFC7"/>
<path d="M310.699 224.26C310.863 226.172 311.418 228.026 312.329 229.701C313.24 231.375 314.485 232.831 315.982 233.973C317.636 235.165 319.678 235.637 321.667 235.286C323.656 234.936 325.43 233.791 326.605 232.101C327.783 230.351 328.518 228.325 328.741 226.207C328.965 224.089 328.67 221.948 327.885 219.977C326.137 215.823 321.707 212.49 317.028 213.951C312.666 215.326 310.423 220.346 310.699 224.26Z" fill="white"/>
<path opacity="0.15" d="M246.192 361.522C237.936 348.136 230.946 342.025 210.003 340.252C189.06 338.48 153.587 337.416 126.067 305.667C165.723 355.552 222.525 349.413 234.771 379.871C237.11 385.685 243.179 389.896 252.425 391.215C256.412 391.701 260.443 391.678 264.424 391.144C259.209 382.636 251.297 369.846 246.192 361.522Z" fill="#43F405"/>
<path opacity="0.15" d="M290.43 342.535C287.059 327.051 287.761 317.649 301.342 301.129C314.923 284.61 339.196 257.966 336.733 215.411C343.104 279.576 298.81 316.742 311.112 347.285C313.451 353.085 312.075 360.501 306.406 368.13C303.932 371.388 301.076 374.317 297.902 376.851C295.728 366.981 292.536 352.22 290.43 342.535Z" fill="#43F405"/>
<path d="M196.894 196.633C200.268 186.803 195.664 175.865 186.609 172.201C177.556 168.538 167.481 173.536 164.106 183.367C160.732 193.196 165.336 204.135 174.391 207.799C183.444 211.462 193.519 206.464 196.894 196.633Z" fill="#71FAA8"/>
<path opacity="0.2" d="M183.694 202.011C174.296 204.464 165.655 198.353 162.517 189.249C162.424 192.047 162.932 194.831 164.005 197.403C165.078 199.975 166.688 202.271 168.722 204.126C170.756 205.982 173.162 207.352 175.769 208.137C178.376 208.923 181.12 209.105 183.803 208.672C186.487 208.238 189.044 207.198 191.293 205.627C193.541 204.056 195.425 201.993 196.809 199.584C198.193 197.176 199.044 194.482 199.301 191.695C199.558 188.908 199.214 186.098 198.293 183.464C199.601 188.526 193.698 199.388 183.694 202.011Z" fill="black"/>
<path d="M192.666 215.383C195.166 218.123 196.821 221.566 197.422 225.276C198.023 228.986 197.543 232.797 196.043 236.226C194.542 239.654 192.088 242.547 188.992 244.539C185.896 246.531 182.296 247.531 178.648 247.414C175 247.297 171.467 246.068 168.497 243.881C165.527 241.695 163.253 238.65 161.962 235.132C160.671 231.614 160.422 227.78 161.246 224.116C162.07 220.451 163.93 217.121 166.59 214.546C170.158 211.099 174.907 209.251 179.796 209.408C184.684 209.565 189.313 211.714 192.666 215.383Z" fill="#71FAA8"/>
<path opacity="0.2" d="M181.96 240.694C172.562 243.162 163.921 237.05 160.784 227.932C160.689 230.73 161.195 233.516 162.266 236.088C163.338 238.661 164.947 240.959 166.981 242.816C169.014 244.673 171.42 246.044 174.027 246.831C176.634 247.618 179.378 247.802 182.062 247.369C184.747 246.936 187.305 245.897 189.554 244.326C191.803 242.756 193.688 240.692 195.073 238.284C196.458 235.875 197.309 233.181 197.567 230.394C197.824 227.607 197.48 224.795 196.56 222.161C197.867 227.209 191.95 238.071 181.96 240.694Z" fill="#3BBA6E"/>
<path d="M220.722 234.398C223.213 237.142 224.859 240.585 225.452 244.292C226.046 247.999 225.561 251.804 224.058 255.227C222.555 258.65 220.101 261.537 217.007 263.525C213.914 265.512 210.318 266.511 206.674 266.394C203.03 266.278 199.501 265.051 196.532 262.87C193.564 260.688 191.289 257.649 189.996 254.137C188.702 250.624 188.446 246.796 189.262 243.134C190.078 239.472 191.928 236.141 194.578 233.562C196.346 231.842 198.425 230.5 200.697 229.611C202.969 228.722 205.39 228.304 207.819 228.382C210.248 228.459 212.639 229.031 214.853 230.064C217.068 231.096 219.062 232.569 220.722 234.398Z" fill="#71FAA8"/>
<path opacity="0.4" d="M210.017 259.71C200.605 262.177 191.978 256.051 188.84 246.948C188.745 249.746 189.252 252.531 190.323 255.104C191.394 257.677 193.004 259.974 195.037 261.831C197.07 263.688 199.477 265.059 202.084 265.846C204.691 266.633 207.435 266.817 210.119 266.384C212.803 265.951 215.361 264.912 217.61 263.342C219.86 261.771 221.744 259.708 223.129 257.299C224.515 254.891 225.366 252.197 225.623 249.409C225.88 246.622 225.536 243.811 224.616 241.177C225.924 246.225 220.048 257.086 210.017 259.71Z" fill="#3DA265"/>
<path d="M251.834 218.999C254.334 221.739 255.989 225.182 256.59 228.892C257.191 232.602 256.711 236.413 255.211 239.842C253.71 243.27 251.256 246.163 248.16 248.155C245.064 250.147 241.464 251.147 237.816 251.03C234.168 250.913 230.635 249.684 227.665 247.497C224.695 245.311 222.421 242.266 221.13 238.748C219.839 235.23 219.59 231.396 220.414 227.732C221.238 224.067 223.098 220.737 225.758 218.162C227.523 216.452 229.598 215.117 231.864 214.233C234.13 213.349 236.543 212.934 238.964 213.012C241.386 213.09 243.769 213.658 245.977 214.686C248.185 215.713 250.175 217.179 251.834 218.999Z" fill="#71FAA8"/>
<path opacity="0.2" d="M241.128 244.31C231.73 246.778 223.089 240.652 219.952 231.477C219.859 234.275 220.367 237.059 221.439 239.631C222.512 242.203 224.123 244.499 226.156 246.354C228.19 248.21 230.597 249.58 233.204 250.365C235.811 251.151 238.554 251.334 241.238 250.9C243.921 250.466 246.479 249.426 248.727 247.855C250.975 246.284 252.859 244.221 254.243 241.812C255.628 239.404 256.479 236.71 256.735 233.923C256.992 231.136 256.648 228.326 255.728 225.692C257.049 230.825 251.132 241.687 241.128 244.31Z" fill="black"/>
<path d="M252.577 185.236C255.077 187.977 256.732 191.42 257.333 195.13C257.934 198.84 257.454 202.65 255.953 206.079C254.453 209.508 251.999 212.401 248.903 214.392C245.807 216.384 242.207 217.384 238.559 217.267C234.91 217.15 231.378 215.921 228.408 213.735C225.438 211.549 223.164 208.504 221.873 204.985C220.582 201.467 220.333 197.633 221.157 193.969C221.981 190.305 223.841 186.975 226.501 184.4C230.067 180.949 234.817 179.098 239.707 179.255C244.597 179.412 249.226 181.563 252.577 185.236Z" fill="#71FAA8"/>
<path opacity="0.45" d="M252.577 185.236C255.077 187.977 256.732 191.42 257.333 195.13C257.934 198.84 257.454 202.65 255.953 206.079C254.453 209.508 251.999 212.401 248.903 214.392C245.807 216.384 242.207 217.384 238.559 217.267C234.91 217.15 231.378 215.921 228.408 213.735C225.438 211.549 223.164 208.504 221.873 204.985C220.582 201.467 220.333 197.633 221.157 193.969C221.981 190.305 223.841 186.975 226.501 184.4C230.067 180.949 234.817 179.098 239.707 179.255C244.597 179.412 249.226 181.563 252.577 185.236Z" fill="#71FAA8"/>
<path opacity="0.2" d="M241.871 210.548C232.473 213.015 223.832 206.889 220.695 197.715C220.6 200.513 221.106 203.298 222.178 205.871C223.249 208.444 224.859 210.741 226.892 212.598C228.925 214.455 231.331 215.826 233.938 216.613C236.546 217.401 239.289 217.584 241.974 217.151C244.658 216.718 247.216 215.679 249.465 214.109C251.714 212.538 253.599 210.475 254.984 208.066C256.369 205.658 257.221 202.964 257.478 200.176C257.735 197.389 257.391 194.578 256.471 191.944C257.778 197.063 251.861 207.924 241.871 210.548Z" fill="#71FAA8"/>
<path d="M245.807 201.742C247.787 203.918 249.098 206.649 249.572 209.592C250.047 212.535 249.664 215.557 248.472 218.275C247.28 220.994 245.334 223.288 242.877 224.867C240.421 226.445 237.566 227.238 234.672 227.145C231.779 227.052 228.977 226.077 226.621 224.343C224.266 222.61 222.461 220.195 221.437 217.405C220.412 214.615 220.213 211.575 220.865 208.668C221.516 205.762 222.989 203.119 225.098 201.075C227.93 198.335 231.703 196.866 235.586 196.991C239.47 197.115 243.146 198.825 245.807 201.742Z" fill="#71FAA8"/>
<path opacity="0.3" d="M245.807 201.742C247.787 203.918 249.098 206.649 249.572 209.592C250.047 212.535 249.664 215.557 248.472 218.275C247.28 220.994 245.334 223.288 242.877 224.867C240.421 226.445 237.566 227.238 234.672 227.145C231.779 227.052 228.977 226.077 226.621 224.343C224.266 222.61 222.461 220.195 221.437 217.405C220.412 214.615 220.213 211.575 220.865 208.668C221.516 205.762 222.989 203.119 225.098 201.075C227.93 198.335 231.703 196.866 235.586 196.991C239.47 197.115 243.146 198.825 245.807 201.742Z" fill="white"/>
<path opacity="0.5" d="M237.317 221.835C229.845 223.792 222.993 218.928 220.488 211.64C220.42 213.859 220.828 216.066 221.683 218.105C222.537 220.143 223.817 221.962 225.432 223.433C227.046 224.903 228.956 225.988 231.024 226.611C233.092 227.234 235.268 227.379 237.397 227.037C239.526 226.694 241.555 225.872 243.34 224.629C245.126 223.385 246.623 221.752 247.725 219.844C248.828 217.937 249.509 215.802 249.72 213.592C249.93 211.382 249.665 209.152 248.944 207.06C249.948 211.129 245.256 219.751 237.317 221.835Z" fill="black"/>
<path d="M235.609 182.388C235.644 169.779 225.753 159.529 213.518 159.494C201.283 159.459 191.337 169.652 191.302 182.26C191.268 194.869 201.159 205.118 213.394 205.154C225.629 205.189 235.575 194.996 235.609 182.388Z" fill="#71FAA8"/>
<path opacity="0.15" d="M235.609 182.388C235.644 169.779 225.753 159.529 213.518 159.494C201.283 159.459 191.337 169.652 191.302 182.26C191.268 194.869 201.159 205.118 213.394 205.154C225.629 205.189 235.575 194.996 235.609 182.388Z" fill="white"/>
<path opacity="0.4" d="M216.759 197.091C205.476 200.054 195.101 192.709 191.331 181.691C191.239 185.039 191.863 188.366 193.16 191.437C194.456 194.508 196.392 197.247 198.831 199.46C201.27 201.673 204.151 203.305 207.271 204.242C210.391 205.178 213.673 205.395 216.884 204.877C220.094 204.36 223.155 203.12 225.848 201.247C228.542 199.373 230.802 196.912 232.468 194.037C234.135 191.162 235.167 187.945 235.491 184.613C235.815 181.281 235.424 177.916 234.345 174.757C235.858 180.897 228.758 193.943 216.759 197.091Z" fill="#5AC786"/>
<path d="M209.154 239.66C221.389 239.66 231.308 229.438 231.308 216.83C231.308 204.221 221.389 194 209.154 194C196.919 194 187 204.221 187 216.83C187 229.438 196.919 239.66 209.154 239.66Z" fill="#71FAA8"/>
<path opacity="0.2" d="M212.398 231.137C201.101 234.101 190.739 226.756 186.955 215.738C186.858 219.09 187.478 222.424 188.773 225.501C190.067 228.578 192.003 231.324 194.444 233.543C196.885 235.761 199.77 237.399 202.895 238.338C206.019 239.277 209.306 239.496 212.522 238.977C215.737 238.459 218.803 237.217 221.5 235.34C224.197 233.462 226.459 230.995 228.126 228.115C229.793 225.234 230.824 222.01 231.145 218.673C231.465 215.335 231.069 211.965 229.983 208.804C231.496 214.944 224.396 227.989 212.398 231.137Z" fill="black"/>
<path d="M200.588 210.484C200.839 202.148 194.485 195.18 186.396 194.921C178.306 194.662 171.544 201.21 171.293 209.546C171.042 217.883 177.396 224.851 185.485 225.11C193.575 225.369 200.336 218.821 200.588 210.484Z" fill="#71FAA8"/>
<path opacity="0.5" d="M187.821 219.776C180.349 221.733 173.497 216.94 171.006 209.595C170.946 211.809 171.359 214.009 172.217 216.04C173.074 218.07 174.355 219.881 175.968 221.345C177.582 222.808 179.488 223.887 181.551 224.506C183.615 225.124 185.785 225.267 187.908 224.924C190.031 224.581 192.055 223.761 193.836 222.521C195.617 221.282 197.111 219.653 198.213 217.751C199.314 215.85 199.996 213.722 200.209 211.518C200.423 209.314 200.163 207.089 199.448 205C200.48 209.07 195.76 217.692 187.821 219.776Z" fill="#67EC8C"/>
<path d="M356.726 337.487C355.625 337.487 354.511 337.487 353.383 337.416C353.222 337.411 353.064 337.372 352.917 337.304C352.771 337.235 352.639 337.138 352.529 337.017C352.419 336.895 352.333 336.753 352.277 336.598C352.22 336.443 352.194 336.277 352.199 336.112C352.205 335.946 352.242 335.783 352.308 335.632C352.375 335.481 352.47 335.345 352.587 335.232C352.705 335.119 352.843 335.03 352.993 334.972C353.144 334.914 353.304 334.887 353.465 334.892C357.502 335.053 361.545 334.902 365.56 334.438C365.72 334.418 365.882 334.43 366.038 334.474C366.193 334.518 366.338 334.594 366.466 334.696C366.593 334.798 366.699 334.925 366.779 335.069C366.858 335.213 366.909 335.373 366.929 335.537C366.949 335.702 366.937 335.869 366.894 336.03C366.852 336.19 366.779 336.339 366.68 336.47C366.581 336.601 366.457 336.711 366.317 336.793C366.177 336.875 366.023 336.928 365.863 336.948C362.831 337.317 359.779 337.497 356.726 337.487ZM341.136 336.367H340.971C337.104 335.842 332.99 335.147 328.752 334.297C328.455 334.208 328.201 334.008 328.04 333.737C327.879 333.465 327.822 333.141 327.881 332.829C327.939 332.516 328.109 332.237 328.357 332.047C328.605 331.857 328.913 331.769 329.22 331.801C333.348 332.652 337.476 333.347 341.287 333.843C341.594 333.89 341.873 334.054 342.068 334.302C342.263 334.55 342.361 334.865 342.342 335.184C342.323 335.503 342.188 335.802 341.965 336.024C341.742 336.246 341.446 336.373 341.136 336.381V336.367ZM377.559 333.815C377.322 333.815 377.09 333.744 376.892 333.611C376.694 333.477 376.538 333.287 376.444 333.063C376.378 332.911 376.341 332.748 376.336 332.581C376.331 332.415 376.358 332.249 376.416 332.094C376.474 331.938 376.56 331.796 376.672 331.675C376.783 331.554 376.916 331.457 377.063 331.39C378.216 330.87 379.325 330.253 380.38 329.546C381.369 328.92 382.291 328.188 383.132 327.363C384.195 326.341 385.121 325.178 385.884 323.903C385.954 323.73 386.06 323.575 386.195 323.449C386.33 323.323 386.49 323.23 386.663 323.175C386.837 323.12 387.021 323.105 387.201 323.132C387.381 323.158 387.553 323.225 387.705 323.328C387.857 323.43 387.985 323.566 388.081 323.726C388.176 323.885 388.236 324.065 388.257 324.251C388.277 324.437 388.258 324.626 388.2 324.803C388.141 324.981 388.046 325.143 387.92 325.278C387.039 326.739 385.975 328.074 384.755 329.249C383.816 330.186 382.783 331.018 381.673 331.73C380.52 332.502 379.31 333.18 378.054 333.758C377.901 333.797 377.743 333.806 377.586 333.786L377.559 333.815ZM317.015 331.532C316.914 331.545 316.813 331.545 316.712 331.532C312.846 330.539 308.828 329.419 304.782 328.199C304.471 328.101 304.21 327.881 304.053 327.587C303.897 327.294 303.857 326.949 303.943 326.625C303.987 326.465 304.062 326.314 304.163 326.184C304.264 326.053 304.389 325.944 304.531 325.864C304.673 325.783 304.829 325.733 304.991 325.715C305.152 325.697 305.315 325.713 305.47 325.76C309.488 326.966 313.465 328.086 317.304 329.078C317.461 329.117 317.61 329.187 317.741 329.285C317.873 329.383 317.984 329.506 318.068 329.649C318.153 329.791 318.209 329.95 318.233 330.114C318.258 330.279 318.251 330.448 318.212 330.61C318.136 330.879 317.977 331.115 317.758 331.282C317.539 331.449 317.273 331.536 317.001 331.532H317.015ZM293.375 324.442C293.247 324.462 293.118 324.462 292.99 324.442C289.178 323.151 285.257 321.747 281.321 320.273C281.017 320.157 280.768 319.923 280.629 319.621C280.49 319.319 280.472 318.972 280.578 318.656C280.632 318.498 280.716 318.352 280.825 318.228C280.934 318.103 281.066 318.002 281.214 317.931C281.361 317.86 281.521 317.819 281.683 317.812C281.846 317.805 282.008 317.832 282.161 317.89C286.069 319.308 289.976 320.726 293.76 322.031C294.07 322.138 294.325 322.366 294.472 322.666C294.619 322.966 294.645 323.314 294.545 323.633C294.453 323.877 294.289 324.084 294.077 324.227C293.865 324.369 293.614 324.439 293.361 324.427L293.375 324.442ZM270.217 315.82C270.065 315.821 269.914 315.787 269.777 315.721C266.02 314.218 262.167 312.601 258.342 310.942C258.193 310.878 258.058 310.784 257.944 310.666C257.83 310.548 257.74 310.408 257.679 310.254C257.617 310.1 257.586 309.935 257.586 309.768C257.587 309.602 257.619 309.437 257.682 309.283C257.744 309.13 257.835 308.99 257.95 308.873C258.064 308.755 258.2 308.662 258.35 308.599C258.499 308.536 258.659 308.504 258.821 308.504C258.983 308.505 259.143 308.538 259.292 308.602C263.103 310.262 266.942 311.85 270.671 313.367C270.975 313.49 271.219 313.733 271.351 314.041C271.482 314.349 271.49 314.698 271.373 315.012C271.277 315.249 271.114 315.452 270.906 315.593C270.698 315.735 270.453 315.809 270.203 315.806L270.217 315.82ZM389.503 314.09C389.186 314.091 388.881 313.966 388.65 313.742C388.42 313.518 388.282 313.211 388.264 312.885C387.961 308.801 387.008 304.796 385.443 301.03C385.383 300.876 385.353 300.711 385.355 300.544C385.357 300.378 385.391 300.213 385.455 300.06C385.519 299.907 385.612 299.769 385.728 299.653C385.844 299.537 385.981 299.446 386.131 299.386C386.28 299.321 386.44 299.288 386.601 299.288C386.763 299.288 386.923 299.322 387.071 299.386C387.22 299.451 387.355 299.546 387.467 299.665C387.58 299.784 387.669 299.925 387.727 300.08C389.401 304.106 390.414 308.39 390.727 312.757C390.736 312.924 390.713 313.091 390.659 313.249C390.606 313.407 390.522 313.552 390.413 313.676C390.304 313.8 390.172 313.9 390.026 313.971C389.879 314.043 389.72 314.083 389.558 314.09H389.503ZM247.568 305.993C247.394 305.994 247.221 305.96 247.059 305.894C243.371 304.193 239.601 302.42 235.845 300.605C235.549 300.462 235.321 300.204 235.21 299.888C235.099 299.571 235.114 299.222 235.253 298.918C235.392 298.613 235.642 298.378 235.949 298.263C236.256 298.149 236.595 298.165 236.89 298.308C240.633 300.109 244.39 301.881 248.063 303.569C248.326 303.682 248.541 303.887 248.673 304.146C248.805 304.406 248.845 304.705 248.786 304.992C248.728 305.278 248.574 305.535 248.352 305.718C248.129 305.901 247.852 305.998 247.568 305.993ZM225.277 295.217C225.087 295.217 224.898 295.173 224.727 295.089C222.461 293.936 220.167 292.763 217.846 291.572C216.471 290.849 215.095 290.154 213.719 289.346C213.43 289.188 213.215 288.919 213.119 288.597C213.024 288.275 213.056 287.927 213.209 287.63C213.363 287.333 213.624 287.111 213.936 287.013C214.249 286.914 214.586 286.948 214.874 287.106C216.25 287.857 217.626 288.524 219.002 289.304C221.287 290.495 223.557 291.667 225.814 292.82C225.959 292.891 226.09 292.992 226.198 293.116C226.305 293.24 226.388 293.384 226.44 293.542C226.493 293.699 226.514 293.865 226.504 294.031C226.493 294.197 226.45 294.359 226.378 294.508C226.272 294.731 226.105 294.918 225.897 295.044C225.689 295.17 225.449 295.23 225.208 295.217H225.277ZM381.013 290.551C380.803 290.548 380.597 290.491 380.414 290.384C380.231 290.278 380.078 290.125 379.967 289.942C377.999 286.638 375.674 283.164 373.087 279.604C372.989 279.472 372.917 279.322 372.876 279.161C372.835 279 372.825 278.833 372.846 278.668C372.868 278.503 372.921 278.345 373.003 278.201C373.084 278.058 373.192 277.932 373.321 277.832C373.582 277.627 373.911 277.538 374.236 277.583C374.561 277.628 374.855 277.804 375.055 278.073C377.724 281.689 380.104 285.163 382.113 288.609C382.281 288.897 382.332 289.242 382.255 289.568C382.178 289.895 381.978 290.177 381.701 290.353C381.476 290.502 381.21 290.572 380.944 290.551H381.013ZM203.426 283.532C203.219 283.536 203.014 283.482 202.834 283.376C199.165 281.325 195.56 279.297 192.019 277.293C191.878 277.212 191.754 277.103 191.654 276.973C191.554 276.842 191.479 276.693 191.435 276.533C191.391 276.373 191.378 276.206 191.397 276.04C191.416 275.875 191.466 275.715 191.544 275.57C191.623 275.425 191.728 275.297 191.855 275.194C191.982 275.091 192.127 275.014 192.282 274.969C192.437 274.923 192.6 274.91 192.76 274.929C192.92 274.948 193.075 275 193.216 275.081C196.702 277.066 200.298 279.089 204.004 281.15C204.147 281.228 204.274 281.334 204.378 281.462C204.481 281.591 204.559 281.739 204.606 281.898C204.653 282.058 204.669 282.226 204.654 282.392C204.638 282.558 204.59 282.719 204.513 282.866C204.401 283.078 204.233 283.254 204.029 283.372C203.824 283.49 203.591 283.545 203.357 283.532H203.426ZM181.919 271.181C181.702 271.18 181.489 271.122 181.3 271.011C177.764 268.87 174.2 266.672 170.719 264.474C170.441 264.299 170.243 264.018 170.166 263.692C170.09 263.367 170.143 263.023 170.313 262.737C170.482 262.451 170.755 262.247 171.071 262.168C171.387 262.09 171.721 262.144 171.998 262.319C175.466 264.503 179.016 266.686 182.538 268.813C182.821 268.985 183.026 269.265 183.108 269.592C183.191 269.919 183.144 270.266 182.979 270.558C182.865 270.759 182.699 270.923 182.5 271.034C182.301 271.144 182.076 271.195 181.85 271.181H181.919ZM366.221 270.302C366.046 270.299 365.874 270.258 365.715 270.182C365.556 270.106 365.415 269.998 365.299 269.863C363.606 267.878 361.804 265.821 359.919 263.765C358.969 262.716 357.992 261.653 356.988 260.589C356.761 260.348 356.637 260.025 356.642 259.69C356.647 259.355 356.782 259.036 357.015 258.802C357.249 258.569 357.563 258.441 357.888 258.447C358.213 258.452 358.523 258.59 358.749 258.831C359.767 259.894 360.744 260.958 361.721 262.021C363.606 264.106 365.436 266.176 367.156 268.19C367.306 268.376 367.402 268.603 367.433 268.843C367.464 269.083 367.428 269.328 367.331 269.548C367.233 269.769 367.077 269.956 366.881 270.09C366.685 270.223 366.456 270.297 366.221 270.302ZM160.88 257.952C160.646 257.949 160.418 257.881 160.22 257.753C156.766 255.498 153.34 253.159 149.872 250.833C149.738 250.74 149.622 250.621 149.532 250.481C149.442 250.342 149.38 250.186 149.349 250.022C149.317 249.858 149.318 249.69 149.35 249.526C149.382 249.362 149.445 249.207 149.535 249.068C149.625 248.929 149.741 248.81 149.876 248.717C150.011 248.625 150.163 248.561 150.322 248.528C150.481 248.496 150.645 248.497 150.803 248.529C150.962 248.562 151.114 248.627 151.248 248.72C154.661 251.046 158.128 253.357 161.568 255.612C161.788 255.762 161.956 255.981 162.047 256.237C162.138 256.492 162.147 256.771 162.073 257.032C161.999 257.293 161.846 257.523 161.637 257.689C161.427 257.854 161.172 257.946 160.908 257.952H160.88ZM349.076 252.067C348.92 252.068 348.765 252.038 348.621 251.977C348.477 251.916 348.346 251.826 348.236 251.712C345.36 248.876 342.319 246.04 339.182 243.204C338.972 242.972 338.853 242.667 338.849 242.349C338.845 242.032 338.957 241.724 339.161 241.486C339.366 241.248 339.65 241.098 339.956 241.064C340.263 241.031 340.571 241.116 340.82 241.304C343.971 244.14 347.039 247.076 349.929 249.911C350.043 250.029 350.133 250.168 350.195 250.321C350.257 250.475 350.288 250.639 350.288 250.805C350.288 250.971 350.257 251.135 350.195 251.288C350.133 251.442 350.043 251.581 349.929 251.698C349.813 251.821 349.674 251.917 349.52 251.981C349.366 252.044 349.2 252.073 349.034 252.067H349.076ZM140.35 243.928C140.099 243.931 139.853 243.851 139.648 243.701C136.25 241.29 132.865 238.823 129.562 236.37C129.412 236.28 129.282 236.16 129.179 236.015C129.077 235.871 129.006 235.706 128.969 235.531C128.933 235.356 128.933 235.175 128.969 235C129.005 234.825 129.076 234.66 129.177 234.515C129.279 234.37 129.409 234.249 129.559 234.16C129.71 234.07 129.876 234.014 130.049 233.995C130.221 233.976 130.396 233.994 130.561 234.049C130.726 234.104 130.878 234.194 131.007 234.313C134.282 236.752 137.667 239.206 141.038 241.616C141.308 241.808 141.493 242.103 141.552 242.435C141.611 242.767 141.54 243.11 141.355 243.389C141.239 243.562 141.082 243.703 140.899 243.797C140.716 243.891 140.513 243.936 140.309 243.928H140.35ZM120.371 229.081C120.097 229.096 119.825 229.016 119.6 228.854C116.284 226.273 113.009 223.65 109.831 221.069C109.687 220.971 109.565 220.844 109.473 220.695C109.38 220.546 109.318 220.378 109.292 220.203C109.265 220.028 109.274 219.849 109.318 219.678C109.362 219.507 109.441 219.347 109.548 219.209C109.655 219.07 109.79 218.957 109.942 218.875C110.094 218.793 110.262 218.744 110.433 218.732C110.605 218.721 110.777 218.746 110.938 218.807C111.1 218.867 111.247 218.962 111.372 219.084C114.523 221.651 117.784 224.26 121.086 226.826C121.297 226.984 121.454 227.207 121.533 227.463C121.612 227.719 121.611 227.994 121.528 228.249C121.445 228.504 121.285 228.724 121.072 228.879C120.859 229.034 120.604 229.115 120.343 229.109L120.371 229.081ZM101.038 213.256C100.746 213.257 100.463 213.151 100.24 212.958C97.034 210.122 93.883 207.4 90.883 204.663C90.637 204.439 90.487 204.124 90.466 203.786C90.446 203.448 90.556 203.116 90.773 202.862C90.88 202.738 91.01 202.637 91.156 202.565C91.301 202.492 91.459 202.45 91.62 202.441C91.781 202.432 91.942 202.456 92.094 202.511C92.247 202.566 92.387 202.652 92.507 202.763C95.493 205.486 98.63 208.265 101.822 211.016C102.019 211.181 102.161 211.405 102.229 211.657C102.297 211.909 102.287 212.176 102.201 212.422C102.115 212.668 101.956 212.881 101.748 213.03C101.54 213.18 101.292 213.259 101.038 213.256ZM82.613 196.467C82.296 196.461 81.9927 196.334 81.7601 196.113C78.6916 193.106 75.7332 190.1 72.9675 187.165C72.7364 186.926 72.6067 186.602 72.6067 186.265C72.6067 185.927 72.7364 185.603 72.9675 185.364C73.2013 185.129 73.5148 184.998 73.8412 184.998C74.1677 184.998 74.4812 185.129 74.715 185.364C77.467 188.271 80.3979 191.263 83.453 194.241C83.68 194.482 83.808 194.805 83.808 195.141C83.808 195.478 83.68 195.801 83.453 196.042C83.236 196.289 82.935 196.441 82.613 196.467ZM65.482 178.232C65.3076 178.234 65.1347 178.197 64.9754 178.124C64.8162 178.051 64.6744 177.942 64.5601 177.806C61.698 174.446 59.0561 171.127 56.6756 167.88C56.583 167.617 56.577 167.33 56.6586 167.062C56.7401 166.795 56.9047 166.563 57.1269 166.402C57.3491 166.241 57.6166 166.159 57.8881 166.17C58.1597 166.181 58.4202 166.284 58.6296 166.462C60.9688 169.61 63.5832 172.886 66.404 176.204C66.5606 176.386 66.6627 176.611 66.698 176.852C66.7333 177.093 66.7002 177.339 66.6027 177.561C66.5053 177.783 66.3476 177.971 66.1488 178.102C65.9499 178.234 65.7183 178.303 65.482 178.302V178.232ZM50.6488 157.954C50.4393 157.957 50.2329 157.903 50.0496 157.799C49.8663 157.694 49.7125 157.543 49.603 157.359C47.3808 153.718 45.4525 149.895 43.8376 145.93C43.7135 145.619 43.7141 145.271 43.8392 144.961C43.9644 144.651 44.2038 144.405 44.5049 144.278C44.806 144.15 45.144 144.15 45.4447 144.279C45.7453 144.408 45.9839 144.655 46.108 144.965C47.6774 148.801 49.5457 152.5 51.6945 156.026C51.7801 156.167 51.8377 156.324 51.8639 156.489C51.8902 156.653 51.8846 156.821 51.8475 156.983C51.8104 157.146 51.7425 157.299 51.6478 157.434C51.553 157.568 51.4333 157.683 51.2955 157.77C51.1005 157.891 50.8767 157.955 50.6488 157.954ZM41.98 134.486C41.6645 134.487 41.361 134.361 41.1329 134.137C40.9048 133.912 40.7695 133.606 40.7553 133.281V133.125C40.7553 132.6 40.7553 132.076 40.7553 131.579C40.6759 127.636 41.6877 123.75 43.6724 120.377C43.8549 120.091 44.1401 119.892 44.4652 119.823C44.7904 119.754 45.1288 119.82 45.4062 120.009C45.6836 120.197 45.8771 120.49 45.9441 120.825C46.0112 121.161 45.9464 121.509 45.764 121.795C44.0179 124.756 43.1343 128.172 43.2184 131.636C43.2184 132.09 43.2184 132.558 43.2184 133.054V133.253C43.2257 133.42 43.2009 133.586 43.1452 133.743C43.0895 133.9 43.0042 134.044 42.8941 134.167C42.784 134.29 42.6514 134.388 42.5039 134.458C42.3564 134.527 42.1971 134.566 42.035 134.571L41.98 134.486ZM138.3 123.993C138.172 124.014 138.042 124.014 137.915 123.993C133.938 122.575 130.003 121.37 126.205 120.221C126.05 120.175 125.906 120.097 125.781 119.993C125.655 119.889 125.551 119.761 125.474 119.615C125.396 119.47 125.348 119.31 125.33 119.145C125.313 118.98 125.327 118.814 125.372 118.654C125.418 118.495 125.493 118.347 125.594 118.217C125.694 118.088 125.819 117.981 125.96 117.901C126.101 117.821 126.256 117.771 126.417 117.753C126.577 117.735 126.738 117.75 126.893 117.796C130.718 118.945 134.695 120.221 138.685 121.582C138.839 121.634 138.982 121.716 139.105 121.825C139.228 121.933 139.329 122.066 139.402 122.215C139.475 122.364 139.518 122.526 139.53 122.693C139.542 122.859 139.521 123.027 139.47 123.185C139.392 123.434 139.239 123.652 139.034 123.808C138.829 123.963 138.582 124.048 138.327 124.05L138.3 123.993ZM114.674 116.903H114.371C110.243 115.84 106.253 114.904 102.414 114.067C102.108 114.002 101.838 113.819 101.659 113.555C101.48 113.292 101.406 112.967 101.451 112.649C101.517 112.336 101.695 112.06 101.95 111.876C102.205 111.692 102.518 111.613 102.827 111.656C106.693 112.436 110.752 113.386 114.894 114.492C115.193 114.558 115.457 114.737 115.634 114.993C115.812 115.249 115.89 115.564 115.854 115.876C115.818 116.189 115.67 116.476 115.439 116.682C115.208 116.887 114.91 116.997 114.605 116.988L114.674 116.903ZM54.13 114.478C53.8921 114.476 53.6596 114.405 53.4598 114.272C53.26 114.139 53.1011 113.95 53.0017 113.727C52.872 113.418 52.8657 113.069 52.9843 112.756C53.1028 112.443 53.3365 112.19 53.6347 112.054C57.5448 110.385 61.6705 109.315 65.8811 108.877C66.0434 108.853 66.2088 108.864 66.3671 108.908C66.5254 108.952 66.6733 109.029 66.802 109.133C66.9307 109.238 67.0373 109.369 67.1156 109.517C67.1938 109.666 67.2419 109.829 67.2571 109.997C67.2782 110.163 67.2671 110.332 67.2245 110.493C67.1818 110.655 67.1084 110.806 67.0085 110.938C66.9086 111.07 66.7843 111.18 66.6427 111.262C66.5011 111.344 66.3451 111.396 66.1838 111.415C62.2153 111.823 58.326 112.826 54.6392 114.393C54.4673 114.478 54.2792 114.522 54.0888 114.521L54.13 114.478ZM90.58 112.054H90.415C86.136 111.472 82.049 111.118 78.2788 110.976C78.1062 110.988 77.933 110.962 77.7705 110.901C77.608 110.839 77.4598 110.744 77.3354 110.62C77.211 110.496 77.1133 110.346 77.0484 110.181C76.9836 110.015 76.953 109.838 76.9588 109.66C76.9646 109.481 77.0066 109.306 77.0821 109.146C77.1575 108.985 77.2648 108.843 77.3969 108.728C77.5291 108.613 77.6832 108.527 77.8493 108.477C78.0154 108.427 78.1899 108.414 78.3614 108.438C82.214 108.579 86.37 108.948 90.745 109.529C91.07 109.572 91.365 109.745 91.566 110.011C91.767 110.276 91.858 110.613 91.819 110.947C91.791 111.272 91.642 111.573 91.403 111.787C91.165 112.001 90.855 112.112 90.539 112.096L90.58 112.054Z" fill="white"/>
<path d="M163.715 419.873C161.552 419.879 159.405 419.495 157.371 418.738C157.065 418.624 156.815 418.388 156.677 418.084C156.539 417.779 156.524 417.431 156.635 417.115C156.746 416.799 156.975 416.542 157.27 416.399C157.566 416.257 157.904 416.242 158.211 416.356C159.976 417.012 161.839 417.343 163.715 417.335C165.677 417.318 167.627 417.018 169.508 416.441L169.879 417.647L170.141 418.894C168.053 419.524 165.89 419.854 163.715 419.873ZM180.818 413.208C180.621 413.21 180.426 413.161 180.251 413.067C180.076 412.973 179.926 412.837 179.814 412.669C179.625 412.394 179.55 412.054 179.604 411.722C179.658 411.39 179.838 411.093 180.103 410.897C182.78 408.93 185.318 406.769 187.698 404.431C188.235 403.92 188.772 403.382 189.322 402.829C189.556 402.593 189.87 402.464 190.197 402.468C190.523 402.472 190.835 402.609 191.063 402.85C191.291 403.09 191.417 403.415 191.413 403.751C191.409 404.087 191.276 404.409 191.042 404.644L189.391 406.288C186.922 408.706 184.292 410.942 181.52 412.981C181.314 413.127 181.068 413.201 180.818 413.194V413.208ZM148.29 411.067C148.097 411.071 147.906 411.026 147.734 410.937C147.561 410.848 147.412 410.718 147.299 410.557C144.879 407.009 142.965 403.122 141.616 399.014C141.505 398.696 141.522 398.346 141.661 398.041C141.8 397.735 142.051 397.499 142.359 397.383C142.512 397.327 142.674 397.303 142.835 397.312C142.997 397.321 143.156 397.363 143.301 397.436C143.447 397.508 143.578 397.61 143.685 397.735C143.793 397.86 143.875 398.005 143.928 398.163C145.204 402.056 147.011 405.742 149.294 409.11C149.391 409.244 149.461 409.396 149.5 409.558C149.539 409.72 149.546 409.888 149.522 410.053C149.498 410.217 149.442 410.376 149.358 410.518C149.274 410.661 149.163 410.785 149.033 410.883C148.811 411.025 148.55 411.09 148.29 411.067ZM198.459 395.639C198.226 395.635 198 395.563 197.805 395.432C197.61 395.301 197.455 395.117 197.357 394.899C197.26 394.682 197.223 394.44 197.253 394.202C197.282 393.965 197.376 393.74 197.523 393.555C199.972 390.52 202.477 387.16 204.981 383.629C205.181 383.407 205.452 383.266 205.745 383.233C206.037 383.2 206.331 383.277 206.574 383.449C206.816 383.621 206.99 383.877 207.064 384.171C207.138 384.464 207.106 384.775 206.976 385.047C204.444 388.677 201.899 392.137 199.408 395.171C199.294 395.317 199.149 395.435 198.985 395.516C198.82 395.597 198.641 395.639 198.459 395.639ZM139.621 387.557C139.334 387.555 139.056 387.452 138.836 387.263C138.615 387.074 138.464 386.812 138.41 386.522C137.681 382.622 137.034 378.368 136.676 373.845C136.661 373.679 136.677 373.512 136.725 373.353C136.772 373.193 136.849 373.045 136.952 372.917C137.055 372.789 137.182 372.682 137.324 372.604C137.467 372.526 137.623 372.478 137.784 372.462C137.945 372.446 138.107 372.463 138.262 372.512C138.416 372.561 138.56 372.641 138.684 372.746C138.809 372.852 138.912 372.983 138.988 373.13C139.063 373.277 139.11 373.438 139.126 373.604C139.538 378.042 140.116 382.225 140.832 386.039C140.873 386.359 140.795 386.683 140.614 386.946C140.433 387.21 140.161 387.392 139.855 387.457L139.621 387.557ZM212.907 375.107C212.668 375.111 212.433 375.042 212.232 374.908C211.96 374.723 211.769 374.434 211.702 374.105C211.635 373.776 211.697 373.432 211.875 373.15C214.007 369.747 216.168 366.131 218.301 362.401C218.382 362.258 218.49 362.132 218.618 362.031C218.746 361.931 218.893 361.857 219.049 361.815C219.204 361.773 219.367 361.763 219.527 361.786C219.686 361.808 219.84 361.863 219.979 361.948C220.262 362.119 220.467 362.399 220.549 362.726C220.632 363.053 220.585 363.4 220.42 363.692C218.273 367.449 216.085 371.094 213.939 374.525C213.829 374.705 213.676 374.852 213.496 374.954C213.315 375.055 213.112 375.108 212.907 375.107ZM137.13 362.345C136.81 362.345 136.503 362.216 136.274 361.985C136.045 361.755 135.913 361.441 135.906 361.111C135.906 358.658 135.796 356.105 135.796 353.496C135.796 351.809 135.796 350.107 135.796 348.377C135.806 348.043 135.943 347.725 136.177 347.492C136.41 347.259 136.723 347.129 137.048 347.129C137.21 347.131 137.37 347.166 137.519 347.232C137.667 347.298 137.802 347.394 137.915 347.514C138.027 347.634 138.116 347.776 138.175 347.931C138.234 348.087 138.262 348.253 138.259 348.42C138.259 350.136 138.259 351.823 138.259 353.496C138.259 356.077 138.259 358.615 138.369 361.04C138.374 361.207 138.348 361.373 138.29 361.53C138.233 361.686 138.146 361.829 138.035 361.95C137.923 362.071 137.79 362.169 137.642 362.236C137.493 362.304 137.334 362.341 137.172 362.345H137.13ZM225.415 353.269C225.212 353.273 225.012 353.219 224.837 353.113C224.693 353.036 224.566 352.93 224.463 352.801C224.36 352.672 224.283 352.523 224.237 352.363C224.191 352.203 224.176 352.036 224.194 351.87C224.212 351.704 224.262 351.543 224.341 351.398C226.24 347.782 228.167 344.024 230.038 340.195C230.201 339.924 230.457 339.725 230.756 339.639C231.054 339.552 231.373 339.585 231.65 339.729C231.927 339.873 232.141 340.119 232.25 340.418C232.359 340.717 232.355 341.048 232.24 341.344C230.341 345.187 228.414 348.973 226.502 352.603C226.396 352.805 226.24 352.975 226.048 353.092C225.856 353.209 225.637 353.271 225.415 353.269ZM137.557 336.991H137.488C137.162 336.969 136.857 336.815 136.641 336.563C136.424 336.31 136.313 335.98 136.332 335.644C136.566 331.546 136.883 327.277 137.268 322.967C137.303 322.626 137.467 322.314 137.725 322.099C137.983 321.883 138.314 321.782 138.644 321.818C138.808 321.834 138.968 321.884 139.113 321.964C139.259 322.044 139.387 322.153 139.491 322.286C139.595 322.418 139.672 322.57 139.718 322.733C139.764 322.896 139.778 323.067 139.759 323.236C139.373 327.49 139.057 331.744 138.823 335.842C138.795 336.164 138.648 336.463 138.412 336.677C138.177 336.891 137.871 337.003 137.557 336.991ZM236.629 330.652C236.443 330.651 236.26 330.607 236.092 330.525C235.8 330.378 235.576 330.118 235.468 329.803C235.36 329.487 235.377 329.14 235.514 328.837C237.234 325.094 238.968 321.223 240.647 317.337C240.713 317.186 240.807 317.049 240.924 316.934C241.042 316.82 241.18 316.731 241.33 316.672C241.481 316.612 241.642 316.584 241.803 316.589C241.964 316.594 242.123 316.631 242.271 316.699C242.418 316.767 242.551 316.864 242.661 316.985C242.772 317.106 242.859 317.248 242.916 317.404C242.974 317.559 243.001 317.725 242.997 317.891C242.992 318.057 242.956 318.221 242.89 318.372C241.211 322.272 239.464 326.157 237.743 329.929C237.636 330.156 237.467 330.345 237.257 330.473C237.047 330.602 236.804 330.664 236.56 330.652H236.629ZM246.66 307.482C246.495 307.484 246.331 307.45 246.178 307.383C245.879 307.251 245.641 307.004 245.518 306.693C245.394 306.383 245.394 306.034 245.518 305.724C247.087 301.881 248.655 297.939 250.169 294.011C250.289 293.698 250.523 293.447 250.822 293.311C251.121 293.176 251.46 293.167 251.765 293.288C252.067 293.417 252.308 293.663 252.437 293.973C252.566 294.283 252.571 294.633 252.453 294.947C250.939 298.889 249.371 302.845 247.788 306.702C247.695 306.947 247.529 307.154 247.314 307.294C247.098 307.435 246.845 307.5 246.591 307.482H246.66ZM255.728 283.901C255.586 283.921 255.443 283.921 255.301 283.901C254.995 283.78 254.747 283.54 254.61 283.232C254.474 282.924 254.46 282.574 254.572 282.256C255.948 278.328 257.42 274.329 258.769 270.359C258.897 270.068 259.127 269.838 259.412 269.713C259.698 269.588 260.018 269.578 260.31 269.685C260.602 269.792 260.845 270.008 260.99 270.29C261.135 270.572 261.172 270.901 261.094 271.21C259.718 275.18 258.342 279.207 256.884 283.149C256.781 283.391 256.608 283.593 256.388 283.728C256.169 283.862 255.914 283.923 255.659 283.901H255.728ZM263.984 259.979C263.788 259.984 263.595 259.939 263.419 259.85C263.244 259.76 263.093 259.628 262.978 259.465C262.863 259.302 262.788 259.113 262.759 258.913C262.731 258.714 262.75 258.51 262.814 258.32C264.094 254.35 265.374 250.294 266.584 246.267C266.633 246.107 266.712 245.958 266.816 245.829C266.921 245.7 267.049 245.594 267.193 245.516C267.338 245.439 267.496 245.391 267.658 245.376C267.82 245.362 267.984 245.38 268.139 245.431C268.293 245.481 268.436 245.561 268.559 245.668C268.683 245.775 268.784 245.906 268.858 246.054C268.933 246.201 268.978 246.363 268.991 246.528C269.005 246.694 268.987 246.86 268.937 247.019C267.713 251.074 266.433 255.144 265.153 259.114C265.079 259.405 264.907 259.659 264.667 259.831C264.428 260.002 264.137 260.08 263.846 260.05L263.984 259.979ZM271.332 235.774C271.218 235.794 271.101 235.794 270.988 235.774C270.675 235.678 270.411 235.46 270.254 235.165C270.097 234.87 270.059 234.523 270.148 234.2C271.304 230.145 272.432 226.046 273.506 222.034C273.547 221.872 273.619 221.72 273.718 221.588C273.817 221.455 273.94 221.344 274.081 221.261C274.222 221.177 274.377 221.124 274.539 221.103C274.7 221.083 274.863 221.095 275.019 221.14C275.332 221.233 275.596 221.448 275.756 221.74C275.915 222.032 275.957 222.377 275.872 222.7C274.799 226.741 273.671 230.839 272.515 234.909C272.425 235.188 272.245 235.426 272.004 235.584C271.763 235.741 271.477 235.809 271.194 235.774H271.332ZM277.826 211.328H277.524C277.368 211.288 277.221 211.217 277.092 211.118C276.962 211.019 276.854 210.895 276.772 210.752C276.69 210.61 276.636 210.452 276.614 210.288C276.592 210.123 276.602 209.956 276.643 209.796C277.056 208.123 277.455 206.464 277.854 204.791C278.446 202.352 279.01 199.913 279.574 197.502C279.611 197.34 279.679 197.187 279.773 197.052C279.867 196.917 279.987 196.802 280.124 196.715C280.261 196.627 280.414 196.569 280.574 196.542C280.733 196.515 280.896 196.521 281.053 196.559C281.21 196.597 281.359 196.667 281.49 196.764C281.621 196.862 281.732 196.984 281.817 197.126C281.902 197.268 281.959 197.425 281.985 197.589C282.011 197.754 282.005 197.921 281.968 198.084C281.404 200.508 280.84 202.947 280.248 205.4C279.849 207.074 279.436 208.747 279.023 210.42C278.941 210.71 278.762 210.959 278.517 211.126C278.273 211.292 277.979 211.363 277.689 211.328H277.826ZM283.482 186.654H283.22C282.902 186.58 282.624 186.379 282.449 186.094C282.274 185.81 282.215 185.466 282.285 185.137C283.152 180.968 283.991 176.799 284.761 172.744C284.792 172.581 284.854 172.426 284.943 172.287C285.031 172.149 285.146 172.03 285.279 171.937C285.413 171.844 285.563 171.779 285.721 171.746C285.879 171.713 286.041 171.713 286.199 171.744C286.357 171.776 286.508 171.839 286.642 171.931C286.777 172.022 286.892 172.14 286.982 172.278C287.072 172.416 287.135 172.57 287.167 172.733C287.199 172.895 287.2 173.063 287.169 173.226C286.399 177.31 285.559 181.493 284.693 185.676C284.624 185.981 284.448 186.25 284.199 186.43C283.951 186.611 283.646 186.69 283.344 186.654H283.482ZM288.188 161.754H287.981C287.67 161.695 287.392 161.515 287.205 161.252C287.018 160.988 286.936 160.66 286.977 160.336C287.679 156.167 288.353 151.956 288.931 147.858C288.979 147.529 289.149 147.232 289.406 147.031C289.663 146.83 289.986 146.74 290.307 146.78C290.622 146.836 290.904 147.014 291.096 147.278C291.288 147.541 291.375 147.871 291.339 148.198C290.747 152.325 290.087 156.55 289.385 160.748C289.322 161.055 289.151 161.328 288.904 161.514C288.658 161.7 288.354 161.786 288.05 161.754H288.188ZM291.669 136.684H291.518C291.193 136.642 290.898 136.469 290.697 136.203C290.496 135.937 290.405 135.601 290.444 135.266C290.953 131.012 291.394 126.758 291.82 122.688C291.865 122.364 292.03 122.069 292.28 121.866C292.53 121.663 292.846 121.567 293.163 121.598C293.481 121.629 293.774 121.784 293.982 122.032C294.191 122.28 294.299 122.602 294.283 122.93C293.912 127.042 293.458 131.296 292.907 135.578C292.87 135.888 292.723 136.172 292.494 136.376C292.265 136.58 291.971 136.69 291.669 136.684ZM293.926 111.43H293.843C293.682 111.42 293.525 111.379 293.379 111.307C293.234 111.235 293.104 111.134 292.997 111.01C292.889 110.886 292.807 110.742 292.754 110.585C292.7 110.428 292.678 110.262 292.687 110.097C292.935 105.758 293.1 101.589 293.169 97.476C293.169 97.309 293.201 97.143 293.265 96.989C293.328 96.835 293.421 96.695 293.538 96.579C293.655 96.462 293.793 96.371 293.945 96.311C294.097 96.251 294.258 96.223 294.421 96.229C294.583 96.23 294.743 96.265 294.892 96.331C295.041 96.397 295.175 96.493 295.288 96.613C295.4 96.733 295.489 96.875 295.548 97.031C295.607 97.186 295.635 97.352 295.632 97.519C295.563 101.603 295.398 105.885 295.15 110.281C295.119 110.593 294.977 110.882 294.751 111.092C294.524 111.302 294.23 111.417 293.926 111.415V111.43ZM206.068 95.137C205.862 95.131 205.66 95.078 205.476 94.981C205.192 94.819 204.98 94.548 204.888 94.227C204.795 93.906 204.829 93.561 204.981 93.265C207.004 89.436 209.109 85.721 211.077 82.19C211.158 82.047 211.266 81.921 211.394 81.821C211.523 81.721 211.669 81.647 211.825 81.605C211.981 81.563 212.143 81.553 212.303 81.576C212.462 81.598 212.616 81.653 212.755 81.737C212.894 81.82 213.016 81.932 213.114 82.064C213.211 82.196 213.282 82.347 213.323 82.508C213.364 82.668 213.374 82.836 213.352 83C213.33 83.165 213.277 83.323 213.196 83.467C211.187 86.983 209.15 90.684 207.141 94.47C207.037 94.669 206.881 94.835 206.692 94.95C206.503 95.064 206.287 95.124 206.068 95.123V95.137ZM294.352 86.076C294.032 86.076 293.725 85.947 293.496 85.716C293.267 85.486 293.135 85.172 293.128 84.842C292.99 80.446 292.742 76.206 292.371 72.279C292.354 72.113 292.37 71.945 292.417 71.786C292.463 71.626 292.54 71.478 292.642 71.349C292.744 71.22 292.87 71.113 293.012 71.034C293.155 70.955 293.311 70.906 293.472 70.889C293.632 70.872 293.795 70.888 293.95 70.936C294.104 70.984 294.249 71.063 294.374 71.168C294.499 71.274 294.603 71.403 294.679 71.55C294.756 71.697 294.804 71.858 294.82 72.023C295.191 76.022 295.453 80.304 295.591 84.785C295.594 85.12 295.472 85.444 295.248 85.687C295.025 85.931 294.718 86.075 294.393 86.09L294.352 86.076ZM218.603 73.314C218.37 73.312 218.141 73.243 217.943 73.115C217.805 73.026 217.687 72.909 217.593 72.772C217.5 72.635 217.434 72.48 217.4 72.316C217.365 72.153 217.362 71.983 217.392 71.819C217.421 71.654 217.482 71.497 217.571 71.357C219.897 67.656 222.236 64.111 224.534 60.821C224.727 60.551 225.014 60.368 225.335 60.313C225.656 60.257 225.986 60.333 226.254 60.523C226.517 60.722 226.693 61.019 226.745 61.351C226.797 61.683 226.719 62.023 226.529 62.296C224.259 65.557 221.933 69.06 219.649 72.732C219.531 72.908 219.372 73.05 219.187 73.146C219.002 73.243 218.797 73.291 218.59 73.285L218.603 73.314ZM291.875 60.892C291.59 60.891 291.314 60.79 291.094 60.604C290.873 60.418 290.721 60.159 290.664 59.871C289.929 55.775 288.899 51.7418 287.582 47.8039C287.528 47.6475 287.504 47.4815 287.511 47.3155C287.519 47.1495 287.559 46.9867 287.628 46.8365C287.697 46.6863 287.794 46.5517 287.914 46.4402C288.033 46.3288 288.173 46.2429 288.325 46.1873C288.634 46.0733 288.973 46.0898 289.27 46.2333C289.567 46.3769 289.796 46.6357 289.908 46.9531C291.261 51.0125 292.324 55.169 293.086 59.389C293.128 59.709 293.05 60.033 292.868 60.296C292.687 60.559 292.416 60.742 292.109 60.807L291.875 60.892ZM233.051 52.781C232.766 52.7848 232.488 52.6844 232.267 52.4974C232.017 52.282 231.859 51.9736 231.828 51.6391C231.797 51.3046 231.896 50.971 232.102 50.7108C234.923 47.2083 237.744 44.0178 240.482 41.2385C240.721 41.0054 241.04 40.8796 241.369 40.8889C241.698 40.8982 242.01 41.0418 242.236 41.2882C242.462 41.5345 242.584 41.8634 242.575 42.2024C242.566 42.5415 242.427 42.8629 242.188 43.0961C239.519 45.8045 236.684 48.9383 233.932 52.3698C233.815 52.4923 233.676 52.5893 233.523 52.6551C233.369 52.7209 233.204 52.7541 233.038 52.7527L233.051 52.781ZM283.207 37.339C283.013 37.3385 282.822 37.2907 282.65 37.1995C282.478 37.1083 282.329 36.9763 282.216 36.8144C281.389 35.6496 280.468 34.5586 279.464 33.553C277.694 31.7748 275.586 30.3939 273.272 29.4975C273.12 29.4407 272.981 29.3536 272.861 29.2413C272.742 29.129 272.646 28.9936 272.577 28.8428C272.509 28.692 272.47 28.5289 272.463 28.3626C272.456 28.1964 272.481 28.0303 272.536 27.8739C272.591 27.7175 272.675 27.5738 272.784 27.451C272.893 27.3282 273.025 27.2287 273.171 27.1583C273.317 27.0879 273.476 27.0478 273.637 27.0404C273.798 27.033 273.959 27.0584 274.111 27.1152C276.758 28.1331 279.168 29.7128 281.184 31.7521C282.293 32.855 283.302 34.0607 284.197 35.3538C284.296 35.4869 284.367 35.639 284.407 35.801C284.447 35.9631 284.455 36.1318 284.431 36.2971C284.407 36.4625 284.35 36.6211 284.265 36.7635C284.18 36.906 284.068 37.0294 283.936 37.1263C283.719 37.2715 283.465 37.3456 283.207 37.339ZM250.705 35.1978C250.443 35.2012 250.187 35.1179 249.975 34.9602C249.762 34.8025 249.604 34.5787 249.524 34.3216C249.444 34.0646 249.446 33.7879 249.53 33.5321C249.614 33.2764 249.775 33.0551 249.99 32.9007C253.428 30.3115 257.26 28.3278 261.328 27.0302C261.64 26.9324 261.977 26.9663 262.265 27.1246C262.553 27.2828 262.768 27.5523 262.862 27.8739C262.957 28.1954 262.924 28.5426 262.771 28.8391C262.617 29.1357 262.356 29.3572 262.044 29.4549C258.256 30.6791 254.691 32.5379 251.49 34.9568C251.262 35.1264 250.986 35.2114 250.705 35.1978Z" fill="white"/>
<path d="M98.7122 299.541C94.4192 299.541 90.2912 299.456 86.3282 299.286C86.0232 299.242 85.7452 299.082 85.5492 298.838C85.3522 298.593 85.2512 298.283 85.2642 297.965C85.2782 297.648 85.4062 297.348 85.6232 297.123C85.8402 296.898 86.1312 296.764 86.4382 296.748C90.3462 296.918 94.4472 297.017 98.6442 297.017C98.9712 297.017 99.2852 297.149 99.5192 297.385C99.7532 297.621 99.8892 297.942 99.8962 298.279C99.8992 298.608 99.7772 298.925 99.5562 299.161C99.3342 299.397 99.0312 299.534 98.7122 299.541ZM111.014 299.314C110.71 299.281 110.428 299.133 110.224 298.899C110.019 298.665 109.906 298.361 109.906 298.045C109.906 297.73 110.019 297.426 110.224 297.192C110.428 296.957 110.71 296.809 111.014 296.776C114.99 296.634 119.105 296.408 123.274 296.124C123.441 296.104 123.61 296.12 123.771 296.17C123.932 296.22 124.082 296.303 124.21 296.415C124.339 296.526 124.444 296.664 124.52 296.818C124.596 296.973 124.64 297.142 124.65 297.315C124.661 297.481 124.64 297.647 124.589 297.805C124.538 297.962 124.457 298.108 124.351 298.233C124.244 298.358 124.115 298.461 123.971 298.534C123.826 298.608 123.669 298.651 123.508 298.662C119.311 298.946 115.169 299.173 111.124 299.314H111.014ZM74.1922 298.421H74.0684C69.7478 297.996 65.606 297.429 61.7807 296.748C61.4596 296.691 61.1733 296.506 60.9849 296.232C60.7966 295.958 60.7215 295.618 60.7762 295.287C60.831 294.956 61.011 294.661 61.2768 294.467C61.5426 294.273 61.8724 294.196 62.1935 294.252C65.9638 294.919 70.0505 295.472 74.3023 295.897C74.4665 295.913 74.626 295.962 74.7715 296.043C74.9169 296.123 75.0453 296.232 75.1491 296.364C75.2529 296.497 75.3301 296.649 75.3761 296.812C75.422 296.975 75.4359 297.146 75.4169 297.315C75.3742 297.62 75.2274 297.898 75.0028 298.101C74.7783 298.304 74.4908 298.418 74.1922 298.421ZM135.658 297.655C135.35 297.642 135.057 297.51 134.838 297.286C134.619 297.062 134.489 296.762 134.474 296.444C134.458 296.127 134.558 295.815 134.755 295.569C134.951 295.324 135.229 295.162 135.534 295.117C139.566 294.734 143.666 294.281 147.753 293.784C147.915 293.764 148.079 293.778 148.235 293.823C148.392 293.869 148.539 293.946 148.667 294.05C148.794 294.154 148.901 294.283 148.98 294.43C149.06 294.576 149.11 294.738 149.129 294.904C149.15 295.07 149.139 295.239 149.096 295.4C149.054 295.562 148.98 295.713 148.88 295.845C148.781 295.977 148.656 296.087 148.515 296.169C148.373 296.251 148.217 296.303 148.056 296.322C143.928 296.819 139.8 297.273 135.782 297.655H135.658ZM160.109 294.692C159.949 294.704 159.787 294.683 159.634 294.631C159.481 294.579 159.339 294.496 159.217 294.387C159.095 294.279 158.995 294.146 158.923 293.998C158.85 293.849 158.807 293.688 158.795 293.522C158.784 293.356 158.804 293.19 158.854 293.032C158.905 292.874 158.985 292.728 159.091 292.603C159.196 292.477 159.325 292.374 159.469 292.299C159.613 292.224 159.77 292.18 159.931 292.168C163.907 291.586 167.994 290.962 172.081 290.282C172.402 290.227 172.731 290.306 172.995 290.502C173.26 290.697 173.438 290.993 173.491 291.324C173.544 291.655 173.467 291.994 173.277 292.267C173.088 292.539 172.801 292.723 172.48 292.777C168.352 293.458 164.224 294.096 160.275 294.678L160.109 294.692ZM50.0297 293.983H49.6994C45.6718 292.83 41.7528 291.306 37.9897 289.431C37.8451 289.357 37.716 289.255 37.6098 289.13C37.5035 289.005 37.4222 288.86 37.3705 288.703C37.3187 288.545 37.2976 288.379 37.3082 288.213C37.3188 288.047 37.361 287.885 37.4324 287.736C37.5038 287.588 37.6029 287.454 37.7242 287.345C37.8454 287.236 37.9864 287.152 38.1391 287.098C38.2918 287.045 38.4532 287.023 38.6141 287.034C38.775 287.045 38.9322 287.089 39.0767 287.162C42.7094 288.964 46.4898 290.43 50.3737 291.544C50.6636 291.623 50.9153 291.809 51.0809 292.067C51.2465 292.325 51.3145 292.636 51.2721 292.942C51.2297 293.248 51.0797 293.528 50.8507 293.727C50.6217 293.927 50.3296 294.033 50.0297 294.025V293.983ZM184.465 290.65C184.152 290.662 183.847 290.549 183.612 290.335C183.378 290.122 183.231 289.824 183.203 289.503C183.175 289.182 183.267 288.862 183.461 288.608C183.654 288.355 183.935 288.188 184.245 288.141C187.905 287.446 191.661 286.723 195.404 285.943L196.312 285.758C196.631 285.691 196.964 285.756 197.236 285.941C197.508 286.126 197.698 286.415 197.764 286.744C197.829 287.073 197.766 287.415 197.586 287.696C197.407 287.977 197.127 288.172 196.807 288.24L195.899 288.438C192.129 289.204 188.359 289.941 184.685 290.636L184.465 290.65ZM208.627 285.758C208.31 285.781 207.996 285.676 207.753 285.465C207.509 285.254 207.355 284.953 207.323 284.627C207.291 284.301 207.383 283.975 207.58 283.717C207.778 283.46 208.064 283.292 208.38 283.249C212.508 282.384 216.512 281.476 220.365 280.526C220.684 280.449 221.02 280.506 221.298 280.684C221.577 280.863 221.775 281.147 221.851 281.476C221.887 281.638 221.892 281.806 221.866 281.97C221.839 282.134 221.782 282.291 221.696 282.432C221.61 282.573 221.498 282.695 221.367 282.792C221.235 282.888 221.086 282.956 220.929 282.993C217.062 283.943 213.003 284.865 208.875 285.73L208.627 285.758ZM28.509 282.128C28.3363 282.128 28.1653 282.092 28.0068 282.021C27.8482 281.95 27.7054 281.847 27.5871 281.717L27.4358 281.533C24.5061 278.229 22.746 274.001 22.4409 269.536C22.4485 269.217 22.572 268.912 22.7872 268.682C23.0024 268.452 23.2935 268.313 23.6029 268.294C23.9124 268.274 24.2178 268.375 24.4587 268.576C24.6996 268.777 24.8584 269.064 24.9039 269.38C25.1633 273.3 26.7116 277.011 29.2934 279.902L29.4172 280.044C29.6334 280.293 29.7459 280.62 29.7305 280.955C29.715 281.289 29.5729 281.603 29.3346 281.831C29.1051 282.032 28.8106 282.139 28.509 282.128ZM232.432 279.902C232.138 279.894 231.857 279.778 231.639 279.576C231.42 279.374 231.278 279.099 231.238 278.799C231.199 278.499 231.264 278.194 231.422 277.939C231.58 277.684 231.821 277.495 232.102 277.406C233.478 277.038 234.771 276.641 236.078 276.244C238.748 275.52 241.362 274.826 243.977 274.06C244.291 273.972 244.626 274.015 244.908 274.181C245.191 274.348 245.398 274.623 245.483 274.946C245.569 275.27 245.527 275.615 245.365 275.906C245.204 276.197 244.937 276.41 244.623 276.499C242.009 277.25 239.381 277.917 236.739 278.697L232.749 279.86C232.645 279.889 232.539 279.903 232.432 279.902ZM256.141 273.067C255.846 273.062 255.562 272.949 255.342 272.748C255.121 272.547 254.976 272.271 254.935 271.971C254.893 271.67 254.957 271.364 255.115 271.107C255.273 270.851 255.515 270.661 255.796 270.572C259.732 269.38 263.681 268.133 267.548 266.871C267.85 266.801 268.167 266.851 268.435 267.011C268.704 267.17 268.904 267.427 268.998 267.732C269.091 268.036 269.07 268.366 268.939 268.655C268.808 268.945 268.577 269.173 268.291 269.295C264.41 270.557 260.447 271.805 256.484 273.011C256.382 273.042 256.275 273.056 256.168 273.053L256.141 273.067ZM279.615 265.424C279.359 265.423 279.109 265.339 278.902 265.183C278.695 265.028 278.54 264.81 278.459 264.559C278.398 264.399 278.37 264.227 278.375 264.054C278.38 263.882 278.42 263.712 278.49 263.556C278.561 263.399 278.662 263.259 278.787 263.144C278.911 263.029 279.057 262.941 279.216 262.886C283.096 261.539 287.004 260.149 290.816 258.731C290.968 258.673 291.131 258.646 291.293 258.653C291.456 258.66 291.616 258.701 291.763 258.772C291.91 258.843 292.042 258.944 292.151 259.069C292.26 259.193 292.344 259.339 292.398 259.497C292.505 259.813 292.486 260.16 292.347 260.462C292.208 260.764 291.96 260.998 291.655 261.114C287.816 262.532 283.894 263.95 280 265.297C279.887 265.352 279.767 265.391 279.643 265.41L279.615 265.424ZM26.4313 258.547C26.2393 258.547 26.0503 258.498 25.8809 258.405C25.7356 258.332 25.6062 258.229 25.5002 258.103C25.3942 257.976 25.3138 257.83 25.2638 257.671C25.2138 257.513 25.1951 257.345 25.2089 257.179C25.2227 257.013 25.2688 256.851 25.3442 256.704C27.3078 252.869 29.7402 249.309 32.582 246.111C32.6883 245.986 32.8176 245.884 32.9625 245.81C33.1073 245.737 33.2648 245.693 33.426 245.683C33.5871 245.672 33.7487 245.695 33.9014 245.749C34.0541 245.803 34.1949 245.887 34.3158 245.998C34.5601 246.223 34.7074 246.54 34.7255 246.878C34.7435 247.215 34.6308 247.546 34.4121 247.799C31.7142 250.835 29.4023 254.214 27.5321 257.852C27.4298 258.052 27.2778 258.221 27.0916 258.34C26.9055 258.46 26.6918 258.526 26.4726 258.533L26.4313 258.547ZM302.773 256.831C302.49 256.822 302.219 256.714 302.004 256.524C301.789 256.334 301.644 256.074 301.593 255.788C301.541 255.501 301.587 255.205 301.721 254.948C301.856 254.692 302.072 254.49 302.333 254.378C306.186 252.847 310.038 251.287 313.754 249.713C313.903 249.65 314.062 249.617 314.224 249.617C314.385 249.618 314.544 249.651 314.693 249.715C314.842 249.778 314.977 249.872 315.091 249.99C315.205 250.107 315.295 250.247 315.357 250.401C315.418 250.554 315.45 250.719 315.449 250.885C315.449 251.051 315.417 251.216 315.355 251.369C315.293 251.522 315.202 251.662 315.088 251.779C314.974 251.896 314.838 251.989 314.689 252.053C310.947 253.641 307.094 255.215 303.213 256.746C303.085 256.793 302.95 256.817 302.814 256.817L302.773 256.831ZM325.56 247.189C325.322 247.187 325.089 247.115 324.889 246.982C324.69 246.849 324.531 246.66 324.431 246.437C324.365 246.285 324.329 246.12 324.325 245.953C324.321 245.786 324.35 245.62 324.409 245.464C324.467 245.309 324.556 245.167 324.668 245.046C324.781 244.926 324.915 244.83 325.064 244.764C328.862 243.034 332.632 241.262 336.237 239.503C336.384 239.432 336.542 239.392 336.704 239.384C336.865 239.377 337.027 239.402 337.179 239.459C337.331 239.515 337.47 239.602 337.59 239.714C337.709 239.827 337.806 239.962 337.875 240.113C337.944 240.264 337.983 240.427 337.99 240.594C337.998 240.76 337.973 240.926 337.918 241.083C337.863 241.24 337.779 241.384 337.67 241.507C337.561 241.63 337.43 241.73 337.283 241.8C333.664 243.573 329.88 245.345 326.055 247.075C325.911 247.136 325.757 247.17 325.601 247.175L325.56 247.189ZM42.3791 239.39C42.1278 239.387 41.8832 239.306 41.6779 239.156C41.4726 239.007 41.3163 238.797 41.2297 238.553C41.1431 238.31 41.1303 238.046 41.193 237.795C41.2558 237.544 41.3911 237.319 41.581 237.149C44.4982 234.569 47.8006 231.931 51.3782 229.294C51.5069 229.17 51.6599 229.077 51.8268 229.02C51.9936 228.963 52.1704 228.944 52.3451 228.964C52.5198 228.984 52.6883 229.042 52.8393 229.135C52.9902 229.228 53.1199 229.353 53.2197 229.502C53.3195 229.651 53.3869 229.82 53.4175 229.999C53.4481 230.177 53.4411 230.36 53.3969 230.535C53.3527 230.711 53.2725 230.874 53.1616 231.015C53.0507 231.155 52.9117 231.269 52.7542 231.35C49.2316 233.945 45.998 236.54 43.1222 239.078C42.9133 239.261 42.6528 239.371 42.3791 239.39ZM347.851 236.284C347.626 236.286 347.406 236.223 347.214 236.103C347.022 235.983 346.866 235.81 346.764 235.604C346.614 235.305 346.584 234.956 346.682 234.635C346.78 234.313 346.997 234.045 347.287 233.888C351.029 231.917 354.662 229.903 358.102 227.904C358.387 227.74 358.723 227.7 359.036 227.792C359.35 227.884 359.615 228.1 359.774 228.393C359.933 228.687 359.972 229.033 359.883 229.356C359.794 229.679 359.584 229.952 359.299 230.116C355.845 232.13 352.185 234.157 348.415 236.157C348.234 236.242 348.036 236.285 347.837 236.284H347.851ZM62.3311 224.6C62.0632 224.602 61.802 224.514 61.5875 224.348C61.3731 224.183 61.2172 223.949 61.1438 223.684C61.0704 223.418 61.0836 223.135 61.1812 222.878C61.2788 222.621 61.4556 222.404 61.6844 222.26C65.0281 220.105 68.5644 217.907 72.3209 215.766C72.4616 215.683 72.6168 215.63 72.7777 215.609C72.9386 215.588 73.1018 215.601 73.258 215.646C73.4141 215.69 73.5601 215.767 73.6874 215.87C73.8147 215.974 73.9208 216.102 73.9996 216.248C74.1585 216.542 74.1985 216.888 74.1109 217.212C74.0233 217.536 73.8152 217.811 73.5317 217.978C69.8441 220.105 66.3078 222.232 62.9916 224.416C62.7915 224.537 62.5633 224.601 62.3311 224.6ZM369.275 223.863C369.006 223.868 368.743 223.782 368.526 223.617C368.309 223.453 368.151 223.22 368.076 222.953C368.001 222.687 368.013 222.403 368.11 222.144C368.207 221.886 368.385 221.667 368.615 221.523C372.22 219.183 375.646 216.829 378.783 214.504C378.915 214.406 379.064 214.336 379.222 214.298C379.38 214.26 379.544 214.254 379.704 214.282C379.864 214.31 380.017 214.37 380.154 214.459C380.291 214.548 380.41 214.665 380.503 214.802C380.598 214.936 380.666 215.089 380.703 215.25C380.739 215.412 380.745 215.58 380.718 215.743C380.691 215.907 380.632 216.064 380.546 216.204C380.46 216.344 380.347 216.465 380.214 216.56C377.036 218.914 373.582 221.31 369.922 223.65C369.724 223.762 369.501 223.816 369.275 223.806V223.863ZM83.8242 212.079C83.5452 212.086 83.2722 211.994 83.0502 211.818C82.8282 211.643 82.6722 211.395 82.6062 211.115C82.5402 210.835 82.5692 210.541 82.6882 210.28C82.8072 210.019 83.0092 209.809 83.2602 209.683C86.8102 207.797 90.5392 205.911 94.2682 204.011C94.5642 203.868 94.9032 203.851 95.2112 203.962C95.5202 204.073 95.7742 204.305 95.9192 204.606C95.9892 204.757 96.0282 204.92 96.0362 205.087C96.0442 205.254 96.0202 205.42 95.9652 205.577C95.9102 205.734 95.8252 205.878 95.7162 206.001C95.6062 206.124 95.4742 206.224 95.3272 206.294C91.5432 208.151 87.8422 210.023 84.3192 211.895C84.1672 211.988 83.9992 212.051 83.8242 212.079ZM389.296 208.945C389.119 208.945 388.945 208.905 388.785 208.826C388.626 208.748 388.485 208.633 388.374 208.492C388.268 208.366 388.187 208.22 388.135 208.062C388.084 207.905 388.064 207.738 388.075 207.572C388.087 207.406 388.13 207.243 388.202 207.095C388.275 206.946 388.375 206.813 388.498 206.705C389.736 205.627 390.906 204.535 392.007 203.472C393.906 201.628 395.653 199.785 397.194 197.984C397.296 197.841 397.426 197.721 397.575 197.633C397.725 197.544 397.891 197.488 398.062 197.47C398.233 197.451 398.407 197.469 398.571 197.523C398.735 197.578 398.886 197.667 399.015 197.784C399.144 197.902 399.248 198.047 399.319 198.208C399.391 198.37 399.429 198.545 399.431 198.723C399.433 198.901 399.4 199.077 399.332 199.24C399.264 199.403 399.164 199.55 399.038 199.672C397.442 201.515 395.653 203.415 393.699 205.344C392.571 206.435 391.36 207.556 390.108 208.662C389.859 208.892 389.534 209.014 389.2 209.002L389.296 208.945ZM405.134 189.717C404.943 189.717 404.755 189.674 404.583 189.59C404.293 189.438 404.072 189.174 403.969 188.855C403.866 188.537 403.889 188.189 404.033 187.888C404.594 186.716 405.081 185.508 405.492 184.272C406.259 182.074 406.664 179.759 406.689 177.423C406.689 177.054 406.689 176.686 406.689 176.317C406.693 175.997 406.815 175.69 407.029 175.457C407.243 175.225 407.534 175.084 407.844 175.062C408.154 175.041 408.461 175.141 408.703 175.342C408.946 175.543 409.106 175.83 409.152 176.147C409.152 176.572 409.152 176.998 409.152 177.423C409.109 180.041 408.644 182.634 407.776 185.095C407.335 186.435 406.807 187.742 406.193 189.008C406.089 189.23 405.924 189.415 405.718 189.541C405.513 189.667 405.276 189.728 405.037 189.717H405.134ZM403.139 166.462C402.965 166.461 402.793 166.423 402.634 166.349C402.475 166.276 402.333 166.17 402.217 166.037C399.53 163.047 396.311 160.616 392.736 158.876C392.444 158.725 392.222 158.462 392.119 158.142C392.016 157.823 392.04 157.475 392.186 157.174C392.332 156.873 392.588 156.644 392.897 156.538C393.207 156.432 393.545 156.457 393.837 156.607C397.698 158.496 401.173 161.129 404.074 164.363C404.285 164.618 404.391 164.949 404.368 165.283C404.344 165.617 404.195 165.929 403.95 166.15C403.726 166.354 403.437 166.465 403.139 166.462ZM381.797 154.508C381.682 154.522 381.567 154.522 381.453 154.508C377.547 153.366 373.583 152.447 369.578 151.757C369.27 151.683 369.002 151.49 368.828 151.218C368.654 150.946 368.588 150.616 368.642 150.295C368.697 149.974 368.868 149.687 369.122 149.493C369.375 149.298 369.691 149.21 370.005 149.248C374.096 149.969 378.147 150.916 382.141 152.084C382.422 152.173 382.664 152.363 382.822 152.619C382.98 152.876 383.044 153.182 383.002 153.483C382.961 153.783 382.817 154.059 382.596 154.26C382.375 154.461 382.091 154.574 381.797 154.579V154.508ZM357.648 149.999H357.524C353.658 149.602 349.543 149.304 345.319 149.12C345.157 149.114 344.998 149.076 344.85 149.006C344.703 148.937 344.57 148.838 344.46 148.715C344.35 148.593 344.264 148.449 344.209 148.292C344.153 148.135 344.128 147.968 344.136 147.801C344.157 147.468 344.301 147.155 344.539 146.928C344.778 146.701 345.091 146.577 345.415 146.582C349.695 146.78 353.85 147.078 357.799 147.475C358.124 147.492 358.429 147.641 358.647 147.89C358.865 148.138 358.979 148.466 358.962 148.801C358.946 149.136 358.801 149.45 358.56 149.675C358.318 149.899 358 150.016 357.676 149.999H357.648ZM320.757 149.077C320.453 149.044 320.172 148.896 319.967 148.662C319.763 148.428 319.649 148.123 319.649 147.808C319.649 147.493 319.763 147.189 319.967 146.955C320.172 146.72 320.453 146.572 320.757 146.539C324.885 146.383 329.013 146.312 332.921 146.312H333.114C333.418 146.345 333.7 146.493 333.904 146.728C334.109 146.962 334.222 147.266 334.222 147.581C334.222 147.897 334.109 148.201 333.904 148.435C333.7 148.669 333.418 148.817 333.114 148.85H332.88C328.986 148.85 324.927 148.85 320.812 149.077H320.757Z" fill="white"/>
<path d="M37.1777 227.309C39.9124 226.714 42.7566 226.969 45.3508 228.041C47.945 229.113 50.1725 230.953 51.7518 233.329C53.3312 235.705 54.1913 238.511 54.2235 241.39C54.2557 244.27 53.4585 247.095 51.9327 249.509C50.4069 251.922 48.2211 253.814 45.6516 254.947C43.0821 256.08 40.2443 256.402 37.497 255.873C34.7498 255.344 32.2164 253.988 30.2173 251.975C28.2182 249.962 26.8432 247.384 26.266 244.566C25.4957 240.786 26.2121 236.847 28.2579 233.611C30.3037 230.376 33.5117 228.109 37.1777 227.309Z" fill="#71FAA8"/>
<path opacity="0.15" d="M48.9837 244.594C46.8096 251.925 39.4893 255.314 32.4717 253.783C34.2127 254.944 36.1806 255.697 38.2355 255.987C40.2905 256.276 42.3822 256.097 44.3621 255.46C46.342 254.823 48.1616 253.745 49.6918 252.302C51.2219 250.859 52.4251 249.087 53.2159 247.111C54.0067 245.135 54.3658 243.004 54.2675 240.869C54.1693 238.734 53.6162 236.647 52.6476 234.757C51.6789 232.867 50.3184 231.22 48.6626 229.933C47.0068 228.645 45.0964 227.749 43.0669 227.309C46.7546 228.5 51.2954 236.809 48.9837 244.594Z" fill="#254E36"/>
<path d="M307.504 93.847C310.491 86.416 307.067 77.897 299.856 74.82C292.646 71.742 284.379 75.27 281.393 82.701C278.406 90.132 281.83 98.65 289.04 101.728C296.251 104.806 304.517 101.277 307.504 93.847Z" fill="#71FAA8"/>
<path opacity="0.35" d="M289.729 96.6111C283.22 92.9101 281.473 84.8281 284.431 78.0071C282.967 79.5231 281.845 81.3521 281.145 83.3661C280.445 85.3791 280.183 87.5261 280.379 89.6551C280.575 91.7841 281.224 93.8421 282.279 95.6841C283.334 97.5251 284.769 99.1051 286.483 100.31C288.198 101.515 290.148 102.316 292.197 102.657C294.246 102.998 296.342 102.869 298.337 102.28C300.332 101.692 302.177 100.658 303.74 99.2521C305.304 97.8451 306.547 96.1021 307.383 94.1441C305.47 97.6891 296.636 100.554 289.729 96.6111Z" fill="#254E36"/>
<path d="M382.127 292.664C380.066 294.609 377.491 295.88 374.728 296.317C371.965 296.754 369.139 296.337 366.607 295.118C364.074 293.9 361.949 291.935 360.5 289.472C359.051 287.009 358.344 284.158 358.467 281.281C358.59 278.404 359.538 275.628 361.192 273.306C362.846 270.984 365.13 269.22 367.757 268.236C370.384 267.252 373.235 267.093 375.95 267.779C378.664 268.465 381.12 269.965 383.008 272.089C384.261 273.499 385.232 275.151 385.866 276.948C386.5 278.745 386.784 280.654 386.702 282.564C386.621 284.475 386.174 286.35 385.389 288.083C384.604 289.816 383.496 291.373 382.127 292.664Z" fill="#71FAA8"/>
<path opacity="0.5" d="M382.127 292.664C380.066 294.609 377.491 295.88 374.728 296.317C371.965 296.754 369.139 296.337 366.607 295.118C364.074 293.9 361.949 291.935 360.5 289.472C359.051 287.009 358.344 284.158 358.467 281.281C358.59 278.404 359.538 275.628 361.192 273.306C362.846 270.984 365.13 269.22 367.757 268.236C370.384 267.252 373.235 267.093 375.95 267.779C378.664 268.465 381.12 269.965 383.008 272.089C384.261 273.499 385.232 275.151 385.866 276.948C386.5 278.745 386.784 280.654 386.702 282.564C386.621 284.475 386.174 286.35 385.389 288.083C384.604 289.816 383.496 291.373 382.127 292.664Z" fill="#71FAA8"/>
<path opacity="0.35" d="M363.427 283.943C361.68 276.499 366.317 269.763 373.169 267.353C371.099 267.269 369.037 267.655 367.128 268.484C365.219 269.313 363.51 270.564 362.122 272.15C360.735 273.735 359.702 275.615 359.098 277.657C358.494 279.699 358.332 281.853 358.626 283.966C358.919 286.079 359.659 288.1 360.795 289.886C361.93 291.672 363.433 293.178 365.196 294.299C366.959 295.42 368.94 296.127 370.997 296.372C373.055 296.616 375.14 296.391 377.105 295.713C373.293 296.634 365.271 291.856 363.427 283.943Z" fill="#71FAA8"/>
</svg>

